<svg xmlns="http://www.w3.org/2000/svg" xmlns:xlink="http://www.w3.org/1999/xlink" zoomAndPan="magnify" preserveAspectRatio="xMidYMid meet" version="1.0" viewBox="3.23 133.58 371.77 102.62"><defs><g/><clipPath id="4c27389273"><path d="M 158 19 L 199 19 L 199 76.640625 L 158 76.640625 Z M 158 19 " clip-rule="nonzero"/></clipPath><clipPath id="aa1262edad"><rect x="0" width="362" y="0" height="77"/></clipPath><clipPath id="8274c714c7"><path d="M 357.128906 204.355469 L 375 204.355469 L 375 223 L 357.128906 223 Z M 357.128906 204.355469 " clip-rule="nonzero"/></clipPath><clipPath id="4498c78a89"><path d="M 0.777344 0.636719 L 45.640625 0.636719 L 45.640625 45.5 L 0.777344 45.5 Z M 0.777344 0.636719 " clip-rule="nonzero"/></clipPath><clipPath id="fbd18c1dc1"><path d="M 23.210938 0.636719 C 10.820312 0.636719 0.777344 10.679688 0.777344 23.070312 C 0.777344 35.457031 10.820312 45.5 23.210938 45.5 C 35.597656 45.5 45.640625 35.457031 45.640625 23.070312 C 45.640625 10.679688 35.597656 0.636719 23.210938 0.636719 Z M 23.210938 0.636719 " clip-rule="nonzero"/></clipPath><clipPath id="166e0d51cb"><path d="M 0.777344 0.636719 L 45.640625 0.636719 L 45.640625 45.5 L 0.777344 45.5 Z M 0.777344 0.636719 " clip-rule="nonzero"/></clipPath><clipPath id="7f47a6e2cd"><path d="M 23.210938 0.636719 C 10.820312 0.636719 0.777344 10.679688 0.777344 23.070312 C 0.777344 35.457031 10.820312 45.5 23.210938 45.5 C 35.597656 45.5 45.640625 35.457031 45.640625 23.070312 C 45.640625 10.679688 35.597656 0.636719 23.210938 0.636719 Z M 23.210938 0.636719 " clip-rule="nonzero"/></clipPath><clipPath id="8f0b83fd97"><rect x="0" width="46" y="0" height="46"/></clipPath><clipPath id="0b46ddb951"><path d="M 19 37 L 27 37 L 27 42.226562 L 19 42.226562 Z M 19 37 " clip-rule="nonzero"/></clipPath><clipPath id="95537c9d08"><path d="M 22 3.890625 L 24 3.890625 L 24 10 L 22 10 Z M 22 3.890625 " clip-rule="nonzero"/></clipPath><clipPath id="3fd4232a7a"><path d="M 5.636719 20 L 12 20 L 12 21 L 5.636719 21 Z M 5.636719 20 " clip-rule="nonzero"/></clipPath><clipPath id="d6d3f6db2e"><path d="M 35 20 L 40.777344 20 L 40.777344 21 L 35 21 Z M 35 20 " clip-rule="nonzero"/></clipPath><clipPath id="c8bed44a9b"><rect x="0" width="46" y="0" height="46"/></clipPath><clipPath id="4e61404269"><rect x="0" width="88" y="0" height="31"/></clipPath></defs><g transform="matrix(1, 0, 0, 1, 0, 160)"><g clip-path="url(#aa1262edad)"><g fill="#ff6565" fill-opacity="1"><g transform="translate(-1.690184, 59.569663)"><g><path d="M 56.4375 -57.546875 C 56.96875 -57.546875 57.390625 -57.398438 57.703125 -57.109375 C 58.023438 -56.816406 58.1875 -56.378906 58.1875 -55.796875 L 58.1875 -1.75 C 58.1875 -1.1875 58.023438 -0.753906 57.703125 -0.453125 C 57.390625 -0.148438 56.96875 0 56.4375 0 L 42.5 0 C 41.96875 0 41.550781 -0.15625 41.25 -0.46875 C 40.945312 -0.789062 40.796875 -1.21875 40.796875 -1.75 L 40.796875 -15.796875 L 22.3125 -15.796875 L 22.3125 -1.75 C 22.3125 -1.21875 22.148438 -0.789062 21.828125 -0.46875 C 21.515625 -0.15625 21.09375 0 20.5625 0 L 6.671875 0 C 6.140625 0 5.710938 -0.148438 5.390625 -0.453125 C 5.078125 -0.753906 4.921875 -1.1875 4.921875 -1.75 L 4.921875 -55.796875 C 4.921875 -56.378906 5.078125 -56.816406 5.390625 -57.109375 C 5.710938 -57.398438 6.140625 -57.546875 6.671875 -57.546875 L 20.5625 -57.546875 C 21.09375 -57.546875 21.515625 -57.382812 21.828125 -57.0625 C 22.148438 -56.75 22.3125 -56.328125 22.3125 -55.796875 L 22.3125 -30.953125 L 40.796875 -30.953125 L 40.796875 -55.796875 C 40.796875 -56.328125 40.945312 -56.75 41.25 -57.0625 C 41.550781 -57.382812 41.96875 -57.546875 42.5 -57.546875 Z M 56.4375 -57.546875 "/></g></g></g><g fill="#ff6565" fill-opacity="1"><g transform="translate(57.997923, 59.569663)"><g><path d="M 4.921875 -2.390625 L 4.921875 -55.109375 C 4.921875 -55.765625 5.164062 -56.332031 5.65625 -56.8125 C 6.15625 -57.300781 6.734375 -57.546875 7.390625 -57.546875 L 31.25 -57.546875 C 35.488281 -57.546875 39.367188 -56.847656 42.890625 -55.453125 C 46.421875 -54.066406 49.457031 -52.097656 52 -49.546875 C 54.550781 -46.992188 56.519531 -43.957031 57.90625 -40.4375 C 59.300781 -36.914062 60 -33.019531 60 -28.75 C 60 -24.507812 59.300781 -20.625 57.90625 -17.09375 C 56.519531 -13.570312 54.550781 -10.535156 52 -7.984375 C 49.457031 -5.441406 46.429688 -3.472656 42.921875 -2.078125 C 39.410156 -0.691406 35.519531 0 31.25 0 L 7.390625 0 C 6.734375 0 6.15625 -0.238281 5.65625 -0.71875 C 5.164062 -1.195312 4.921875 -1.753906 4.921875 -2.390625 Z M 22.3125 -16.484375 L 31.25 -16.484375 C 32.9375 -16.484375 34.472656 -16.800781 35.859375 -17.4375 C 37.253906 -18.082031 38.453125 -18.96875 39.453125 -20.09375 C 40.453125 -21.21875 41.222656 -22.519531 41.765625 -24 C 42.304688 -25.476562 42.578125 -27.0625 42.578125 -28.75 C 42.578125 -31.125 42.101562 -33.265625 41.15625 -35.171875 C 40.207031 -37.078125 38.878906 -38.582031 37.171875 -39.6875 C 35.472656 -40.800781 33.5 -41.347656 31.25 -41.328125 L 22.3125 -41.25 Z M 22.3125 -16.484375 "/></g></g></g><g fill="#ff6565" fill-opacity="1"><g transform="translate(117.042135, 59.569663)"><g><path d="M 43.328125 -38.796875 C 43.785156 -38.796875 44.160156 -38.59375 44.453125 -38.1875 C 44.742188 -37.78125 44.738281 -37.222656 44.4375 -36.515625 L 29.359375 -1.40625 L 23.109375 13.75 C 22.929688 14.207031 22.675781 14.554688 22.34375 14.796875 C 22.019531 15.035156 21.59375 15.15625 21.0625 15.15625 L 10.640625 15.15625 C 9.710938 15.15625 9.039062 14.9375 8.625 14.5 C 8.207031 14.070312 8.222656 13.304688 8.671875 12.203125 L 14.3125 -1.9375 L -0.53125 -36.515625 C -0.832031 -37.222656 -0.835938 -37.78125 -0.546875 -38.1875 C -0.253906 -38.59375 0.113281 -38.796875 0.5625 -38.796875 L 13.78125 -38.796875 C 14.289062 -38.796875 14.75 -38.65625 15.15625 -38.375 C 15.5625 -38.09375 15.835938 -37.726562 15.984375 -37.28125 L 21.9375 -20.265625 L 27.921875 -37.28125 C 28.066406 -37.726562 28.347656 -38.09375 28.765625 -38.375 C 29.179688 -38.65625 29.628906 -38.796875 30.109375 -38.796875 Z M 43.328125 -38.796875 "/></g></g></g><g clip-path="url(#4c27389273)"><g fill="#323232" fill-opacity="1"><g transform="translate(156.329282, 59.569663)"><g><path d="M 40.875 -38.796875 C 41.375 -38.796875 41.769531 -38.640625 42.0625 -38.328125 C 42.351562 -38.023438 42.5 -37.625 42.5 -37.125 L 42.5 -2.046875 C 42.5 0.679688 42.023438 3.175781 41.078125 5.4375 C 40.128906 7.695312 38.796875 9.644531 37.078125 11.28125 C 35.367188 12.925781 33.332031 14.207031 30.96875 15.125 C 28.601562 16.050781 26.019531 16.550781 23.21875 16.625 C 21.445312 16.65625 19.640625 16.554688 17.796875 16.328125 C 15.953125 16.097656 14.171875 15.726562 12.453125 15.21875 C 10.742188 14.71875 9.191406 14.066406 7.796875 13.265625 C 7.066406 12.804688 6.96875 11.972656 7.5 10.765625 L 11.09375 2.421875 C 11.300781 1.941406 11.628906 1.675781 12.078125 1.625 C 12.535156 1.570312 12.992188 1.613281 13.453125 1.75 C 14.023438 1.894531 14.785156 2.085938 15.734375 2.328125 C 16.679688 2.566406 17.722656 2.78125 18.859375 2.96875 C 19.992188 3.15625 21.15625 3.25 22.34375 3.25 C 23.914062 3.25 25.140625 2.742188 26.015625 1.734375 C 26.898438 0.734375 27.394531 -0.585938 27.5 -2.234375 L 27.53125 -2.796875 C 26.425781 -2.046875 25.203125 -1.46875 23.859375 -1.0625 C 22.523438 -0.65625 21.113281 -0.453125 19.625 -0.453125 C 17.070312 -0.453125 14.710938 -0.941406 12.546875 -1.921875 C 10.390625 -2.910156 8.515625 -4.269531 6.921875 -6 C 5.335938 -7.726562 4.101562 -9.722656 3.21875 -11.984375 C 2.332031 -14.242188 1.890625 -16.664062 1.890625 -19.25 C 1.890625 -22.25 2.332031 -25.003906 3.21875 -27.515625 C 4.101562 -30.023438 5.335938 -32.203125 6.921875 -34.046875 C 8.515625 -35.890625 10.390625 -37.316406 12.546875 -38.328125 C 14.710938 -39.335938 17.070312 -39.84375 19.625 -39.84375 C 21.789062 -39.84375 23.769531 -39.421875 25.5625 -38.578125 C 27.363281 -37.734375 28.921875 -36.503906 30.234375 -34.890625 L 31.9375 -37.796875 C 32.132812 -38.078125 32.382812 -38.3125 32.6875 -38.5 C 32.988281 -38.695312 33.316406 -38.796875 33.671875 -38.796875 Z M 17.578125 -19.96875 C 17.578125 -18.65625 18.023438 -17.585938 18.921875 -16.765625 C 19.816406 -15.941406 21.0625 -15.53125 22.65625 -15.53125 C 24.269531 -15.53125 25.53125 -15.941406 26.4375 -16.765625 C 27.34375 -17.585938 27.796875 -18.65625 27.796875 -19.96875 C 27.796875 -21.375 27.34375 -22.515625 26.4375 -23.390625 C 25.53125 -24.265625 24.269531 -24.703125 22.65625 -24.703125 C 21.0625 -24.703125 19.816406 -24.265625 18.921875 -23.390625 C 18.023438 -22.515625 17.578125 -21.375 17.578125 -19.96875 Z M 17.578125 -19.96875 "/></g></g></g></g><g fill="#323232" fill-opacity="1"><g transform="translate(199.200353, 59.569663)"><g><path d="M 11.515625 -41.40625 C 9.972656 -41.40625 8.5625 -41.773438 7.28125 -42.515625 C 6.007812 -43.265625 4.992188 -44.273438 4.234375 -45.546875 C 3.484375 -46.828125 3.109375 -48.25 3.109375 -49.8125 C 3.109375 -51.351562 3.484375 -52.757812 4.234375 -54.03125 C 4.992188 -55.3125 6.007812 -56.328125 7.28125 -57.078125 C 8.5625 -57.835938 9.972656 -58.21875 11.515625 -58.21875 C 13.078125 -58.21875 14.492188 -57.832031 15.765625 -57.0625 C 17.046875 -56.289062 18.054688 -55.273438 18.796875 -54.015625 C 19.546875 -52.753906 19.921875 -51.351562 19.921875 -49.8125 C 19.921875 -48.25 19.546875 -46.828125 18.796875 -45.546875 C 18.054688 -44.273438 17.046875 -43.265625 15.765625 -42.515625 C 14.492188 -41.773438 13.078125 -41.40625 11.515625 -41.40625 Z M 17.765625 -38.796875 C 18.265625 -38.796875 18.644531 -38.65625 18.90625 -38.375 C 19.175781 -38.09375 19.3125 -37.710938 19.3125 -37.234375 L 19.3125 -1.546875 C 19.3125 -0.515625 18.796875 0 17.765625 0 L 5.296875 0 C 4.285156 0 3.78125 -0.515625 3.78125 -1.546875 L 3.78125 -37.234375 C 3.78125 -37.710938 3.910156 -38.09375 4.171875 -38.375 C 4.441406 -38.65625 4.816406 -38.796875 5.296875 -38.796875 Z M 17.765625 -38.796875 "/></g></g></g><g fill="#323232" fill-opacity="1"><g transform="translate(218.891187, 59.569663)"><g><path d="M 4.921875 -2.390625 L 4.921875 -55.109375 C 4.921875 -55.765625 5.164062 -56.332031 5.65625 -56.8125 C 6.15625 -57.300781 6.734375 -57.546875 7.390625 -57.546875 L 31.25 -57.546875 C 35.488281 -57.546875 39.367188 -56.847656 42.890625 -55.453125 C 46.421875 -54.066406 49.457031 -52.097656 52 -49.546875 C 54.550781 -46.992188 56.519531 -43.957031 57.90625 -40.4375 C 59.300781 -36.914062 60 -33.019531 60 -28.75 C 60 -24.507812 59.300781 -20.625 57.90625 -17.09375 C 56.519531 -13.570312 54.550781 -10.535156 52 -7.984375 C 49.457031 -5.441406 46.429688 -3.472656 42.921875 -2.078125 C 39.410156 -0.691406 35.519531 0 31.25 0 L 7.390625 0 C 6.734375 0 6.15625 -0.238281 5.65625 -0.71875 C 5.164062 -1.195312 4.921875 -1.753906 4.921875 -2.390625 Z M 22.3125 -16.484375 L 31.25 -16.484375 C 32.9375 -16.484375 34.472656 -16.800781 35.859375 -17.4375 C 37.253906 -18.082031 38.453125 -18.96875 39.453125 -20.09375 C 40.453125 -21.21875 41.222656 -22.519531 41.765625 -24 C 42.304688 -25.476562 42.578125 -27.0625 42.578125 -28.75 C 42.578125 -31.125 42.101562 -33.265625 41.15625 -35.171875 C 40.207031 -37.078125 38.878906 -38.582031 37.171875 -39.6875 C 35.472656 -40.800781 33.5 -41.347656 31.25 -41.328125 L 22.3125 -41.25 Z M 22.3125 -16.484375 "/></g></g></g><g fill="#323232" fill-opacity="1"><g transform="translate(277.935399, 59.569663)"><g><path d="M 22.765625 -39.84375 C 25.671875 -39.84375 28.320312 -39.367188 30.71875 -38.421875 C 33.113281 -37.484375 35.175781 -36.140625 36.90625 -34.390625 C 38.644531 -32.648438 39.984375 -30.578125 40.921875 -28.171875 C 41.867188 -25.773438 42.34375 -23.113281 42.34375 -20.1875 C 42.34375 -18.875 41.859375 -17.800781 40.890625 -16.96875 C 39.921875 -16.132812 38.648438 -15.71875 37.078125 -15.71875 L 17.3125 -15.71875 C 17.59375 -14.5625 18.289062 -13.613281 19.40625 -12.875 C 20.53125 -12.144531 21.835938 -11.78125 23.328125 -11.78125 C 24.722656 -11.78125 25.894531 -11.929688 26.84375 -12.234375 C 27.789062 -12.535156 28.550781 -12.878906 29.125 -13.265625 C 29.707031 -13.640625 30.207031 -13.765625 30.625 -13.640625 C 31.039062 -13.515625 31.414062 -13.195312 31.75 -12.6875 L 36.515625 -5.875 C 37.191406 -4.882812 37.101562 -4.035156 36.25 -3.328125 C 34.4375 -1.941406 32.398438 -0.859375 30.140625 -0.078125 C 27.878906 0.703125 25.472656 1.09375 22.921875 1.09375 C 20.015625 1.09375 17.289062 0.570312 14.75 -0.46875 C 12.21875 -1.519531 9.984375 -2.976562 8.046875 -4.84375 C 6.117188 -6.71875 4.609375 -8.890625 3.515625 -11.359375 C 2.429688 -13.835938 1.890625 -16.488281 1.890625 -19.3125 C 1.890625 -22.164062 2.421875 -24.835938 3.484375 -27.328125 C 4.546875 -29.816406 6.03125 -31.992188 7.9375 -33.859375 C 9.84375 -35.734375 12.054688 -37.195312 14.578125 -38.25 C 17.109375 -39.3125 19.835938 -39.84375 22.765625 -39.84375 Z M 22.390625 -26.484375 C 21.171875 -26.484375 20.109375 -26.101562 19.203125 -25.34375 C 18.296875 -24.582031 17.691406 -23.644531 17.390625 -22.53125 L 27.421875 -22.53125 C 27.191406 -23.71875 26.609375 -24.671875 25.671875 -25.390625 C 24.742188 -26.117188 23.648438 -26.484375 22.390625 -26.484375 Z M 22.390625 -26.484375 "/></g></g></g><g fill="#323232" fill-opacity="1"><g transform="translate(317.549019, 59.569663)"><g><path d="M 40.6875 -38.796875 C 41.132812 -38.796875 41.515625 -38.59375 41.828125 -38.1875 C 42.148438 -37.78125 42.132812 -37.222656 41.78125 -36.515625 L 23.90625 -0.453125 C 23.695312 -0.0234375 23.359375 0.332031 22.890625 0.625 C 22.429688 0.914062 21.910156 1.0625 21.328125 1.0625 L 19.921875 1.0625 C 19.367188 1.0625 18.851562 0.914062 18.375 0.625 C 17.894531 0.332031 17.550781 -0.0234375 17.34375 -0.453125 L -0.53125 -36.515625 C -0.851562 -37.222656 -0.863281 -37.78125 -0.5625 -38.1875 C -0.257812 -38.59375 0.113281 -38.796875 0.5625 -38.796875 L 13.78125 -38.796875 C 14.289062 -38.796875 14.75 -38.65625 15.15625 -38.375 C 15.5625 -38.09375 15.835938 -37.726562 15.984375 -37.28125 L 20.640625 -24.25 L 25.265625 -37.28125 C 25.421875 -37.726562 25.707031 -38.09375 26.125 -38.375 C 26.539062 -38.65625 26.988281 -38.796875 27.46875 -38.796875 Z M 40.6875 -38.796875 "/></g></g></g></g></g><g clip-path="url(#8274c714c7)"><path fill="#323232" d="M 366.0625 204.472656 C 365.476562 204.472656 364.898438 204.53125 364.320312 204.648438 C 363.746094 204.761719 363.1875 204.933594 362.644531 205.15625 C 362.105469 205.382812 361.589844 205.65625 361.101562 205.984375 C 360.613281 206.308594 360.164062 206.679688 359.75 207.09375 C 359.332031 207.507812 358.964844 207.960938 358.636719 208.449219 C 358.3125 208.933594 358.035156 209.449219 357.8125 209.992188 C 357.585938 210.535156 357.417969 211.089844 357.300781 211.667969 C 357.1875 212.242188 357.128906 212.824219 357.128906 213.410156 C 357.621094 225.261719 374.507812 225.261719 375 213.410156 C 375 212.824219 374.941406 212.242188 374.828125 211.667969 C 374.710938 211.089844 374.542969 210.535156 374.316406 209.992188 C 374.09375 209.449219 373.816406 208.933594 373.492188 208.449219 C 373.164062 207.960938 372.792969 207.507812 372.378906 207.09375 C 371.964844 206.679688 371.515625 206.308594 371.027344 205.984375 C 370.539062 205.65625 370.023438 205.382812 369.480469 205.15625 C 368.941406 204.933594 368.382812 204.761719 367.808594 204.648438 C 367.230469 204.53125 366.652344 204.472656 366.0625 204.472656 Z M 363.421875 210.652344 L 361.113281 213.167969 L 363.421875 215.6875 L 362.476562 216.550781 L 359.375 213.167969 L 362.476562 209.785156 Z M 364.085938 216.746094 L 366.847656 209.605469 L 368.042969 210.070312 L 365.277344 217.214844 Z M 368.707031 215.6875 L 371.015625 213.167969 L 368.707031 210.652344 L 369.652344 209.785156 L 372.753906 213.167969 L 369.652344 216.550781 Z M 368.707031 215.6875 " fill-opacity="1" fill-rule="nonzero"/></g><g transform="matrix(1, 0, 0, 1, 188, 138)"><g clip-path="url(#c8bed44a9b)"><g clip-path="url(#4498c78a89)"><g clip-path="url(#fbd18c1dc1)"><g transform="matrix(1, 0, 0, 1, 0.000000000000028422, 0)"><g clip-path="url(#8f0b83fd97)"><g clip-path="url(#166e0d51cb)"><g clip-path="url(#7f47a6e2cd)"><path fill="#ffffff" d="M 0.777344 0.636719 L 45.640625 0.636719 L 45.640625 45.5 L 0.777344 45.5 Z M 0.777344 0.636719 " fill-opacity="1" fill-rule="nonzero"/></g></g></g></g></g></g><path fill="#ffffff" d="M 26.253906 39.671875 C 26.253906 39.96875 26.167969 40.257812 26.003906 40.53125 C 25.835938 40.808594 25.597656 41.050781 25.289062 41.261719 C 24.980469 41.472656 24.625 41.632812 24.222656 41.75 C 23.820312 41.863281 23.402344 41.917969 22.96875 41.917969 C 22.53125 41.917969 22.113281 41.863281 21.710938 41.75 C 21.308594 41.632812 20.953125 41.472656 20.644531 41.261719 C 20.335938 41.050781 20.101562 40.808594 19.933594 40.53125 C 19.765625 40.257812 19.683594 39.96875 19.683594 39.671875 C 19.683594 39.375 19.765625 39.085938 19.933594 38.8125 C 20.101562 38.535156 20.335938 38.292969 20.644531 38.082031 C 20.953125 37.871094 21.308594 37.707031 21.710938 37.59375 C 22.113281 37.480469 22.53125 37.421875 22.96875 37.421875 C 23.402344 37.421875 23.820312 37.480469 24.222656 37.59375 C 24.625 37.707031 24.980469 37.871094 25.289062 38.082031 C 25.597656 38.292969 25.835938 38.535156 26.003906 38.8125 C 26.167969 39.085938 26.253906 39.375 26.253906 39.671875 Z M 26.253906 39.671875 " fill-opacity="1" fill-rule="nonzero"/><g clip-path="url(#0b46ddb951)"><path fill="#2e2e2e" d="M 22.96875 42.242188 C 20.976562 42.242188 19.359375 41.089844 19.359375 39.671875 C 19.359375 38.253906 20.976562 37.101562 22.96875 37.101562 C 24.957031 37.101562 26.574219 38.253906 26.574219 39.671875 C 26.574219 41.089844 24.957031 42.242188 22.96875 42.242188 Z M 22.96875 37.746094 C 21.335938 37.746094 20.007812 38.609375 20.007812 39.671875 C 20.007812 40.730469 21.335938 41.59375 22.96875 41.59375 C 24.601562 41.59375 25.925781 40.730469 25.925781 39.671875 C 25.925781 38.609375 24.601562 37.746094 22.96875 37.746094 Z M 22.96875 37.746094 " fill-opacity="1" fill-rule="nonzero"/></g><path fill="#ffde59" d="M 32.679688 21.1875 C 32.679688 15.691406 28.117188 11.265625 22.578125 11.484375 C 17.625 11.679688 13.5625 15.65625 13.273438 20.601562 C 13.046875 24.527344 15.152344 27.988281 18.332031 29.71875 C 19.136719 30.160156 19.652344 30.992188 19.652344 31.910156 L 19.652344 34.554688 L 26.285156 34.554688 L 26.285156 31.914062 C 26.285156 30.988281 26.804688 30.15625 27.613281 29.714844 C 30.632812 28.066406 32.675781 24.863281 32.675781 21.1875 Z M 32.679688 21.1875 " fill-opacity="1" fill-rule="nonzero"/><path fill="#2e2e2e" d="M 26.609375 34.878906 L 19.328125 34.878906 L 19.328125 31.910156 C 19.328125 31.121094 18.886719 30.390625 18.175781 30.003906 C 14.722656 28.121094 12.722656 24.515625 12.953125 20.585938 C 13.25 15.5 17.472656 11.359375 22.5625 11.160156 C 25.320312 11.054688 27.9375 12.042969 29.921875 13.949219 C 31.910156 15.859375 33.003906 18.429688 33.003906 21.183594 C 33.003906 24.859375 31 28.234375 27.773438 29.996094 C 27.054688 30.390625 26.609375 31.121094 26.609375 31.914062 Z M 19.976562 34.230469 L 25.960938 34.230469 L 25.960938 31.914062 C 25.960938 30.886719 26.535156 29.933594 27.460938 29.429688 C 30.480469 27.78125 32.355469 24.621094 32.355469 21.1875 C 32.355469 18.609375 31.332031 16.207031 29.472656 14.417969 C 27.617188 12.632812 25.175781 11.703125 22.589844 11.808594 C 17.824219 11.992188 13.875 15.867188 13.597656 20.621094 C 13.382812 24.296875 15.257812 27.675781 18.484375 29.433594 C 19.40625 29.933594 19.976562 30.882812 19.976562 31.910156 Z M 19.976562 34.230469 " fill-opacity="1" fill-rule="nonzero"/><path fill="#ffffff" d="M 19.269531 32.511719 L 26.667969 32.511719 C 26.902344 32.511719 27.105469 32.597656 27.269531 32.761719 C 27.4375 32.929688 27.519531 33.132812 27.519531 33.367188 L 27.519531 34.296875 C 27.519531 34.53125 27.4375 34.734375 27.269531 34.898438 C 27.105469 35.066406 26.902344 35.148438 26.667969 35.148438 L 19.269531 35.148438 C 19.035156 35.148438 18.832031 35.066406 18.667969 34.898438 C 18.5 34.734375 18.417969 34.53125 18.417969 34.296875 L 18.417969 33.367188 C 18.417969 33.132812 18.5 32.929688 18.667969 32.761719 C 18.832031 32.597656 19.035156 32.511719 19.269531 32.511719 Z M 19.269531 32.511719 " fill-opacity="1" fill-rule="nonzero"/><path fill="#2e2e2e" d="M 26.667969 35.472656 L 19.269531 35.472656 C 18.621094 35.472656 18.09375 34.945312 18.09375 34.296875 L 18.09375 33.367188 C 18.09375 32.71875 18.621094 32.1875 19.269531 32.1875 L 26.667969 32.1875 C 27.316406 32.1875 27.84375 32.71875 27.84375 33.367188 L 27.84375 34.296875 C 27.84375 34.945312 27.316406 35.472656 26.667969 35.472656 Z M 19.269531 32.835938 C 18.980469 32.835938 18.742188 33.074219 18.742188 33.367188 L 18.742188 34.296875 C 18.742188 34.585938 18.980469 34.824219 19.269531 34.824219 L 26.667969 34.824219 C 26.957031 34.824219 27.195312 34.589844 27.195312 34.296875 L 27.195312 33.367188 C 27.195312 33.074219 26.960938 32.835938 26.667969 32.835938 Z M 19.269531 32.835938 " fill-opacity="1" fill-rule="nonzero"/><path fill="#ffffff" d="M 19.265625 35.148438 L 26.664062 35.148438 C 26.898438 35.148438 27.101562 35.234375 27.265625 35.398438 C 27.433594 35.566406 27.515625 35.765625 27.515625 36.003906 L 27.515625 36.933594 C 27.515625 37.167969 27.433594 37.371094 27.265625 37.535156 C 27.101562 37.703125 26.898438 37.785156 26.664062 37.785156 L 19.265625 37.785156 C 19.03125 37.785156 18.832031 37.703125 18.664062 37.535156 C 18.496094 37.371094 18.414062 37.167969 18.414062 36.933594 L 18.414062 36.003906 C 18.414062 35.765625 18.496094 35.566406 18.664062 35.398438 C 18.832031 35.234375 19.03125 35.148438 19.265625 35.148438 Z M 19.265625 35.148438 " fill-opacity="1" fill-rule="nonzero"/><path fill="#2e2e2e" d="M 26.664062 38.109375 L 19.265625 38.109375 C 18.617188 38.109375 18.089844 37.582031 18.089844 36.933594 L 18.089844 36.003906 C 18.089844 35.355469 18.617188 34.824219 19.265625 34.824219 L 26.664062 34.824219 C 27.3125 34.824219 27.839844 35.355469 27.839844 36.003906 L 27.839844 36.933594 C 27.839844 37.582031 27.3125 38.109375 26.664062 38.109375 Z M 19.265625 35.472656 C 18.976562 35.472656 18.738281 35.710938 18.738281 36.003906 L 18.738281 36.933594 C 18.738281 37.222656 18.976562 37.460938 19.265625 37.460938 L 26.664062 37.460938 C 26.953125 37.460938 27.191406 37.226562 27.191406 36.933594 L 27.191406 36.003906 C 27.191406 35.710938 26.957031 35.472656 26.664062 35.472656 Z M 19.265625 35.472656 " fill-opacity="1" fill-rule="nonzero"/><path fill="#ffffff" d="M 19.265625 37.785156 L 26.664062 37.785156 C 26.898438 37.785156 27.101562 37.867188 27.265625 38.035156 C 27.433594 38.203125 27.515625 38.402344 27.515625 38.636719 L 27.515625 39.570312 C 27.515625 39.804688 27.433594 40.003906 27.265625 40.171875 C 27.101562 40.339844 26.898438 40.421875 26.664062 40.421875 L 19.265625 40.421875 C 19.03125 40.421875 18.832031 40.339844 18.664062 40.171875 C 18.496094 40.003906 18.414062 39.804688 18.414062 39.570312 L 18.414062 38.636719 C 18.414062 38.402344 18.496094 38.203125 18.664062 38.035156 C 18.832031 37.867188 19.03125 37.785156 19.265625 37.785156 Z M 19.265625 37.785156 " fill-opacity="1" fill-rule="nonzero"/><path fill="#2e2e2e" d="M 26.664062 40.746094 L 19.265625 40.746094 C 18.617188 40.746094 18.089844 40.21875 18.089844 39.570312 L 18.089844 38.640625 C 18.089844 37.988281 18.617188 37.460938 19.265625 37.460938 L 26.664062 37.460938 C 27.3125 37.460938 27.839844 37.988281 27.839844 38.640625 L 27.839844 39.570312 C 27.839844 40.21875 27.3125 40.746094 26.664062 40.746094 Z M 19.265625 38.109375 C 18.976562 38.109375 18.738281 38.347656 18.738281 38.640625 L 18.738281 39.570312 C 18.738281 39.859375 18.976562 40.097656 19.265625 40.097656 L 26.664062 40.097656 C 26.953125 40.097656 27.191406 39.859375 27.191406 39.570312 L 27.191406 38.640625 C 27.191406 38.347656 26.957031 38.109375 26.664062 38.109375 Z M 19.265625 38.109375 " fill-opacity="1" fill-rule="nonzero"/><path fill="#ffffff" d="M 30.632812 20.335938 C 30.46875 20.335938 30.328125 20.210938 30.3125 20.046875 C 30.191406 18.941406 29.726562 16.875 27.949219 15.40625 C 27.8125 15.292969 27.792969 15.085938 27.90625 14.949219 C 28.019531 14.8125 28.222656 14.792969 28.363281 14.90625 C 30.316406 16.519531 30.824219 18.777344 30.953125 19.976562 C 30.972656 20.152344 30.84375 20.3125 30.667969 20.332031 C 30.65625 20.335938 30.644531 20.335938 30.632812 20.335938 Z M 30.632812 20.335938 " fill-opacity="1" fill-rule="nonzero"/><path fill="#ffffff" d="M 27.183594 14.683594 C 27.105469 14.683594 27.027344 14.65625 26.964844 14.597656 C 26.40625 14.085938 25.761719 13.777344 25.054688 13.679688 C 24.878906 13.65625 24.753906 13.492188 24.78125 13.3125 C 24.804688 13.136719 24.964844 13.011719 25.144531 13.039062 C 25.972656 13.152344 26.753906 13.527344 27.402344 14.121094 C 27.53125 14.242188 27.542969 14.445312 27.421875 14.578125 C 27.359375 14.648438 27.269531 14.683594 27.183594 14.683594 Z M 27.183594 14.683594 " fill-opacity="1" fill-rule="nonzero"/><g clip-path="url(#95537c9d08)"><path fill="#2e2e2e" d="M 22.96875 9.25 C 22.789062 9.25 22.644531 9.105469 22.644531 8.925781 L 22.644531 4.214844 C 22.644531 4.035156 22.789062 3.890625 22.96875 3.890625 C 23.148438 3.890625 23.292969 4.035156 23.292969 4.214844 L 23.292969 8.925781 C 23.292969 9.105469 23.148438 9.25 22.96875 9.25 Z M 22.96875 9.25 " fill-opacity="1" fill-rule="nonzero"/></g><g clip-path="url(#3fd4232a7a)"><path fill="#2e2e2e" d="M 10.683594 20.921875 L 5.976562 20.921875 C 5.796875 20.921875 5.652344 20.777344 5.652344 20.597656 C 5.652344 20.417969 5.796875 20.273438 5.976562 20.273438 L 10.683594 20.273438 C 10.863281 20.273438 11.011719 20.417969 11.011719 20.597656 C 11.011719 20.777344 10.863281 20.921875 10.683594 20.921875 Z M 10.683594 20.921875 " fill-opacity="1" fill-rule="nonzero"/></g><g clip-path="url(#d6d3f6db2e)"><path fill="#2e2e2e" d="M 40.433594 20.921875 L 35.722656 20.921875 C 35.546875 20.921875 35.398438 20.777344 35.398438 20.597656 C 35.398438 20.417969 35.542969 20.273438 35.722656 20.273438 L 40.433594 20.273438 C 40.613281 20.273438 40.757812 20.417969 40.757812 20.597656 C 40.757812 20.777344 40.613281 20.921875 40.433594 20.921875 Z M 40.433594 20.921875 " fill-opacity="1" fill-rule="nonzero"/></g><path fill="#ffde59" d="M 32.011719 11.476562 L 35.34375 8.144531 " fill-opacity="1" fill-rule="nonzero"/><path fill="#2e2e2e" d="M 32.011719 11.800781 C 31.929688 11.800781 31.847656 11.769531 31.785156 11.703125 C 31.65625 11.578125 31.65625 11.371094 31.785156 11.246094 L 35.113281 7.917969 C 35.242188 7.789062 35.445312 7.789062 35.570312 7.917969 C 35.699219 8.042969 35.699219 8.246094 35.570312 8.375 L 32.242188 11.703125 C 32.179688 11.769531 32.09375 11.800781 32.011719 11.800781 Z M 32.011719 11.800781 " fill-opacity="1" fill-rule="nonzero"/><path fill="#ffde59" d="M 14.015625 11.476562 L 10.683594 8.144531 " fill-opacity="1" fill-rule="nonzero"/><path fill="#2e2e2e" d="M 14.015625 11.800781 C 13.933594 11.800781 13.851562 11.769531 13.785156 11.703125 L 10.457031 8.375 C 10.328125 8.246094 10.328125 8.042969 10.457031 7.917969 C 10.582031 7.789062 10.789062 7.789062 10.914062 7.917969 L 14.242188 11.246094 C 14.371094 11.371094 14.371094 11.578125 14.242188 11.703125 C 14.179688 11.769531 14.097656 11.800781 14.015625 11.800781 Z M 14.015625 11.800781 " fill-opacity="1" fill-rule="nonzero"/><path fill="#ffde59" d="M 14.015625 29.71875 L 10.683594 33.050781 " fill-opacity="1" fill-rule="nonzero"/><path fill="#2e2e2e" d="M 10.683594 33.375 C 10.601562 33.375 10.519531 33.34375 10.457031 33.277344 C 10.328125 33.152344 10.328125 32.945312 10.457031 32.820312 L 13.785156 29.492188 C 13.914062 29.363281 14.117188 29.363281 14.242188 29.492188 C 14.371094 29.617188 14.371094 29.820312 14.242188 29.949219 L 10.914062 33.277344 C 10.851562 33.34375 10.769531 33.375 10.683594 33.375 Z M 10.683594 33.375 " fill-opacity="1" fill-rule="nonzero"/><path fill="#ffde59" d="M 32.011719 29.71875 L 35.34375 33.050781 " fill-opacity="1" fill-rule="nonzero"/><path fill="#2e2e2e" d="M 35.34375 33.375 C 35.261719 33.375 35.179688 33.34375 35.113281 33.277344 L 31.785156 29.949219 C 31.660156 29.820312 31.660156 29.617188 31.785156 29.492188 C 31.910156 29.363281 32.117188 29.363281 32.242188 29.492188 L 35.574219 32.820312 C 35.699219 32.945312 35.699219 33.152344 35.574219 33.277344 C 35.507812 33.34375 35.425781 33.375 35.34375 33.375 Z M 35.34375 33.375 " fill-opacity="1" fill-rule="nonzero"/></g></g><g transform="matrix(1, 0, 0, 1, 1, 126)"><g clip-path="url(#4e61404269)"><g fill="#000000" fill-opacity="1"><g transform="translate(1.129781, 23.345076)"><g><path d="M 16.25 -14.6875 L 16.25 0 L 14.765625 0 L 14.765625 -11.734375 L 9.515625 0 L 8.4375 0 L 3.1875 -11.6875 L 3.1875 0 L 1.703125 0 L 1.703125 -14.6875 L 3.28125 -14.6875 L 8.96875 -1.953125 L 14.65625 -14.6875 Z M 16.25 -14.6875 "/></g></g></g><g fill="#000000" fill-opacity="1"><g transform="translate(18.018897, 23.345076)"><g><path d="M 1.015625 -5.828125 C 1.015625 -7.023438 1.253906 -8.070312 1.734375 -8.96875 C 2.210938 -9.875 2.875 -10.570312 3.71875 -11.0625 C 4.5625 -11.550781 5.515625 -11.796875 6.578125 -11.796875 C 7.679688 -11.796875 8.632812 -11.539062 9.4375 -11.03125 C 10.25 -10.519531 10.832031 -9.867188 11.1875 -9.078125 L 11.1875 -11.625 L 12.671875 -11.625 L 12.671875 0 L 11.1875 0 L 11.1875 -2.578125 C 10.8125 -1.785156 10.222656 -1.128906 9.421875 -0.609375 C 8.617188 -0.0859375 7.664062 0.171875 6.5625 0.171875 C 5.507812 0.171875 4.5625 -0.078125 3.71875 -0.578125 C 2.875 -1.078125 2.210938 -1.78125 1.734375 -2.6875 C 1.253906 -3.59375 1.015625 -4.640625 1.015625 -5.828125 Z M 11.1875 -5.8125 C 11.1875 -6.75 10.992188 -7.570312 10.609375 -8.28125 C 10.222656 -8.988281 9.695312 -9.535156 9.03125 -9.921875 C 8.375 -10.304688 7.648438 -10.5 6.859375 -10.5 C 6.035156 -10.5 5.296875 -10.3125 4.640625 -9.9375 C 3.984375 -9.570312 3.46875 -9.035156 3.09375 -8.328125 C 2.71875 -7.628906 2.53125 -6.796875 2.53125 -5.828125 C 2.53125 -4.878906 2.71875 -4.046875 3.09375 -3.328125 C 3.46875 -2.609375 3.984375 -2.0625 4.640625 -1.6875 C 5.296875 -1.3125 6.035156 -1.125 6.859375 -1.125 C 7.648438 -1.125 8.375 -1.316406 9.03125 -1.703125 C 9.695312 -2.085938 10.222656 -2.632812 10.609375 -3.34375 C 10.992188 -4.050781 11.1875 -4.875 11.1875 -5.8125 Z M 11.1875 -5.8125 "/></g></g></g><g fill="#000000" fill-opacity="1"><g transform="translate(31.351289, 23.345076)"><g><path d="M 1.015625 -5.828125 C 1.015625 -7.023438 1.253906 -8.070312 1.734375 -8.96875 C 2.222656 -9.875 2.890625 -10.570312 3.734375 -11.0625 C 4.578125 -11.550781 5.535156 -11.796875 6.609375 -11.796875 C 7.628906 -11.796875 8.550781 -11.546875 9.375 -11.046875 C 10.195312 -10.554688 10.800781 -9.910156 11.1875 -9.109375 L 11.1875 -15.765625 L 12.671875 -15.765625 L 12.671875 0 L 11.1875 0 L 11.1875 -2.59375 C 10.832031 -1.789062 10.25 -1.128906 9.4375 -0.609375 C 8.625 -0.0859375 7.671875 0.171875 6.578125 0.171875 C 5.515625 0.171875 4.5625 -0.078125 3.71875 -0.578125 C 2.875 -1.078125 2.210938 -1.78125 1.734375 -2.6875 C 1.253906 -3.59375 1.015625 -4.640625 1.015625 -5.828125 Z M 11.1875 -5.8125 C 11.1875 -6.75 10.992188 -7.570312 10.609375 -8.28125 C 10.222656 -8.988281 9.695312 -9.535156 9.03125 -9.921875 C 8.375 -10.304688 7.648438 -10.5 6.859375 -10.5 C 6.035156 -10.5 5.296875 -10.3125 4.640625 -9.9375 C 3.984375 -9.570312 3.46875 -9.035156 3.09375 -8.328125 C 2.71875 -7.628906 2.53125 -6.796875 2.53125 -5.828125 C 2.53125 -4.878906 2.71875 -4.046875 3.09375 -3.328125 C 3.46875 -2.609375 3.984375 -2.0625 4.640625 -1.6875 C 5.296875 -1.3125 6.035156 -1.125 6.859375 -1.125 C 7.648438 -1.125 8.375 -1.316406 9.03125 -1.703125 C 9.695312 -2.085938 10.222656 -2.632812 10.609375 -3.34375 C 10.992188 -4.050781 11.1875 -4.875 11.1875 -5.8125 Z M 11.1875 -5.8125 "/></g></g></g><g fill="#000000" fill-opacity="1"><g transform="translate(44.683681, 23.345076)"><g><path d="M 12.21875 -6.40625 C 12.21875 -5.894531 12.207031 -5.503906 12.1875 -5.234375 L 2.53125 -5.234375 C 2.570312 -4.359375 2.785156 -3.609375 3.171875 -2.984375 C 3.554688 -2.359375 4.0625 -1.882812 4.6875 -1.5625 C 5.3125 -1.25 5.992188 -1.09375 6.734375 -1.09375 C 7.691406 -1.09375 8.5 -1.320312 9.15625 -1.78125 C 9.820312 -2.25 10.265625 -2.882812 10.484375 -3.6875 L 12.046875 -3.6875 C 11.765625 -2.550781 11.160156 -1.625 10.234375 -0.90625 C 9.304688 -0.1875 8.140625 0.171875 6.734375 0.171875 C 5.640625 0.171875 4.65625 -0.0703125 3.78125 -0.5625 C 2.914062 -1.050781 2.238281 -1.742188 1.75 -2.640625 C 1.257812 -3.546875 1.015625 -4.601562 1.015625 -5.8125 C 1.015625 -7.019531 1.253906 -8.078125 1.734375 -8.984375 C 2.222656 -9.890625 2.898438 -10.582031 3.765625 -11.0625 C 4.628906 -11.550781 5.617188 -11.796875 6.734375 -11.796875 C 7.835938 -11.796875 8.800781 -11.550781 9.625 -11.0625 C 10.457031 -10.582031 11.097656 -9.9375 11.546875 -9.125 C 11.992188 -8.3125 12.21875 -7.40625 12.21875 -6.40625 Z M 10.71875 -6.453125 C 10.726562 -7.316406 10.550781 -8.050781 10.1875 -8.65625 C 9.820312 -9.269531 9.328125 -9.734375 8.703125 -10.046875 C 8.078125 -10.359375 7.398438 -10.515625 6.671875 -10.515625 C 5.554688 -10.515625 4.609375 -10.160156 3.828125 -9.453125 C 3.046875 -8.742188 2.613281 -7.742188 2.53125 -6.453125 Z M 10.71875 -6.453125 "/></g></g></g><g fill="#000000" fill-opacity="1"><g transform="translate(56.887294, 23.345076)"><g/></g></g><g fill="#000000" fill-opacity="1"><g transform="translate(61.679292, 23.345076)"><g><path d="M 3.171875 -9.046875 C 3.554688 -9.859375 4.148438 -10.519531 4.953125 -11.03125 C 5.753906 -11.539062 6.703125 -11.796875 7.796875 -11.796875 C 8.859375 -11.796875 9.804688 -11.550781 10.640625 -11.0625 C 11.484375 -10.570312 12.140625 -9.875 12.609375 -8.96875 C 13.085938 -8.070312 13.328125 -7.023438 13.328125 -5.828125 C 13.328125 -4.640625 13.085938 -3.59375 12.609375 -2.6875 C 12.140625 -1.78125 11.484375 -1.078125 10.640625 -0.578125 C 9.796875 -0.078125 8.847656 0.171875 7.796875 0.171875 C 6.691406 0.171875 5.738281 -0.078125 4.9375 -0.578125 C 4.132812 -1.085938 3.546875 -1.75 3.171875 -2.5625 L 3.171875 0 L 1.703125 0 L 1.703125 -15.765625 L 3.171875 -15.765625 Z M 11.8125 -5.828125 C 11.8125 -6.796875 11.625 -7.628906 11.25 -8.328125 C 10.875 -9.035156 10.359375 -9.570312 9.703125 -9.9375 C 9.054688 -10.3125 8.320312 -10.5 7.5 -10.5 C 6.695312 -10.5 5.96875 -10.304688 5.3125 -9.921875 C 4.65625 -9.535156 4.132812 -8.988281 3.75 -8.28125 C 3.363281 -7.570312 3.171875 -6.75 3.171875 -5.8125 C 3.171875 -4.875 3.363281 -4.050781 3.75 -3.34375 C 4.132812 -2.632812 4.65625 -2.085938 5.3125 -1.703125 C 5.96875 -1.316406 6.695312 -1.125 7.5 -1.125 C 8.320312 -1.125 9.054688 -1.3125 9.703125 -1.6875 C 10.359375 -2.0625 10.875 -2.609375 11.25 -3.328125 C 11.625 -4.046875 11.8125 -4.878906 11.8125 -5.828125 Z M 11.8125 -5.828125 "/></g></g></g><g fill="#000000" fill-opacity="1"><g transform="translate(75.011684, 23.345076)"><g><path d="M 11.28125 -11.625 L 4.390625 5.46875 L 2.828125 5.46875 L 5.09375 -0.0625 L 0.3125 -11.625 L 1.953125 -11.625 L 5.921875 -1.703125 L 9.75 -11.625 Z M 11.28125 -11.625 "/></g></g></g></g></g></svg>