<svg xmlns="http://www.w3.org/2000/svg" xmlns:xlink="http://www.w3.org/1999/xlink" zoomAndPan="magnify" preserveAspectRatio="xMidYMid meet" version="1.0" viewBox="0 119.7 371.63 125.39"><defs><g/><clipPath id="005130f900"><path d="M 0 0.785156 L 98.183594 0.785156 L 98.183594 98.96875 L 0 98.96875 Z M 0 0.785156 " clip-rule="nonzero"/></clipPath><clipPath id="1df39973ae"><path d="M 49.089844 0.785156 C 21.980469 0.785156 0 22.761719 0 49.875 C 0 76.988281 21.980469 98.96875 49.089844 98.96875 C 76.203125 98.96875 98.183594 76.988281 98.183594 49.875 C 98.183594 22.761719 76.203125 0.785156 49.089844 0.785156 Z M 49.089844 0.785156 " clip-rule="nonzero"/></clipPath><clipPath id="e1f87d352b"><path d="M 0 0.785156 L 98.183594 0.785156 L 98.183594 98.96875 L 0 98.96875 Z M 0 0.785156 " clip-rule="nonzero"/></clipPath><clipPath id="c67d1c763f"><path d="M 49.089844 0.785156 C 21.980469 0.785156 0 22.761719 0 49.875 C 0 76.988281 21.980469 98.96875 49.089844 98.96875 C 76.203125 98.96875 98.183594 76.988281 98.183594 49.875 C 98.183594 22.761719 76.203125 0.785156 49.089844 0.785156 Z M 49.089844 0.785156 " clip-rule="nonzero"/></clipPath><clipPath id="fc31205792"><rect x="0" width="99" y="0" height="99"/></clipPath><clipPath id="32253ccd0e"><path d="M 85 44 L 89.542969 44 L 89.542969 53 L 85 53 Z M 85 44 " clip-rule="nonzero"/></clipPath><clipPath id="66dbfa9de2"><path d="M 40 81 L 45 81 L 45 89.578125 L 40 89.578125 Z M 40 81 " clip-rule="nonzero"/></clipPath><clipPath id="51b9cec994"><path d="M 8.4375 46 L 14 46 L 14 56 L 8.4375 56 Z M 8.4375 46 " clip-rule="nonzero"/></clipPath><clipPath id="90658b8501"><path d="M 52 9.933594 L 59 9.933594 L 59 15 L 52 15 Z M 52 9.933594 " clip-rule="nonzero"/></clipPath><clipPath id="5feca4e3be"><rect x="0" width="99" y="0" height="100"/></clipPath></defs><g fill="#000000" fill-opacity="1"><g transform="translate(-2.647027, 220.499986)"><g><path d="M 31.3125 20.765625 L 25.921875 12.59375 C 26.160156 12.28125 26.476562 11.882812 26.875 11.40625 C 27.28125 10.925781 28.117188 10.023438 29.390625 8.703125 C 30.671875 7.378906 31.910156 6.21875 33.109375 5.21875 C 34.316406 4.21875 35.71875 3.316406 37.3125 2.515625 C 38.914062 1.710938 40.398438 1.3125 41.765625 1.3125 L 41.765625 0.84375 C 30.078125 -1.394531 20.65625 -7.15625 13.5 -16.4375 C 6.34375 -25.71875 2.765625 -36.757812 2.765625 -49.5625 C 2.765625 -63.957031 7.5625 -76.09375 17.15625 -85.96875 C 26.757812 -95.851562 38.398438 -100.796875 52.078125 -100.796875 C 65.835938 -100.796875 77.476562 -95.851562 87 -85.96875 C 96.519531 -76.09375 101.28125 -63.957031 101.28125 -49.5625 C 101.28125 -37.800781 98.117188 -27.441406 91.796875 -18.484375 C 85.472656 -9.523438 77.15625 -3.484375 66.84375 -0.359375 L 66.84375 0.125 C 67.320312 0.125 69.441406 0.503906 73.203125 1.265625 C 76.960938 2.023438 79.960938 2.40625 82.203125 2.40625 C 85.242188 2.40625 88.003906 1.863281 90.484375 0.78125 C 92.960938 -0.300781 94.679688 -1.363281 95.640625 -2.40625 L 97.078125 -4.078125 L 104.15625 11.15625 C 104 11.5625 103.738281 12.0625 103.375 12.65625 C 103.019531 13.257812 102.203125 14.320312 100.921875 15.84375 C 99.640625 17.363281 98.21875 18.722656 96.65625 19.921875 C 95.09375 21.117188 93.007812 22.195312 90.40625 23.15625 C 87.8125 24.113281 85.035156 24.59375 82.078125 24.59375 C 77.203125 24.59375 71.242188 23.03125 64.203125 19.90625 C 57.160156 16.789062 51.078125 15.234375 45.953125 15.234375 C 43.160156 15.234375 40.539062 15.691406 38.09375 16.609375 C 35.65625 17.535156 33.914062 18.476562 32.875 19.4375 Z M 27.125 -49.5625 C 27.125 -45.71875 27.5625 -42.132812 28.4375 -38.8125 C 29.320312 -35.5 30.703125 -32.484375 32.578125 -29.765625 C 34.460938 -27.046875 37.0625 -24.90625 40.375 -23.34375 C 43.695312 -21.78125 47.597656 -21 52.078125 -21 C 60.484375 -21 66.722656 -23.71875 70.796875 -29.15625 C 74.878906 -34.59375 76.921875 -41.394531 76.921875 -49.5625 C 76.921875 -57.644531 74.835938 -64.425781 70.671875 -69.90625 C 66.515625 -75.382812 60.316406 -78.125 52.078125 -78.125 C 43.921875 -78.125 37.722656 -75.363281 33.484375 -69.84375 C 29.242188 -64.320312 27.125 -57.5625 27.125 -49.5625 Z M 27.125 -49.5625 "/></g></g></g><g fill="#000000" fill-opacity="1"><g transform="translate(95.513028, 220.499986)"><g><path d="M 27.234375 -61.5625 L 27.234375 -32.28125 C 27.234375 -26.195312 28.15625 -21.875 30 -19.3125 C 31.84375 -16.757812 34.960938 -15.484375 39.359375 -15.484375 C 43.753906 -15.484375 46.875 -16.757812 48.71875 -19.3125 C 50.5625 -21.875 51.484375 -26.195312 51.484375 -32.28125 L 51.484375 -61.5625 L 72.71875 -61.5625 L 72.71875 -27.125 C 72.71875 -16.882812 70.054688 -9.503906 64.734375 -4.984375 C 59.421875 -0.460938 50.960938 1.796875 39.359375 1.796875 C 27.753906 1.796875 19.289062 -0.460938 13.96875 -4.984375 C 8.65625 -9.503906 6 -16.882812 6 -27.125 L 6 -61.5625 Z M 27.234375 -61.5625 "/></g></g></g><g fill="#000000" fill-opacity="1"><g transform="translate(168.353065, 220.499986)"><g><path d="M 7.203125 0 L 7.203125 -61.5625 L 28.4375 -61.5625 L 28.4375 -52.6875 L 28.6875 -52.6875 C 28.84375 -53 29.097656 -53.394531 29.453125 -53.875 C 29.816406 -54.351562 30.597656 -55.191406 31.796875 -56.390625 C 32.992188 -57.597656 34.273438 -58.679688 35.640625 -59.640625 C 37.003906 -60.597656 38.765625 -61.457031 40.921875 -62.21875 C 43.078125 -62.976562 45.273438 -63.359375 47.515625 -63.359375 C 49.835938 -63.359375 52.117188 -63.035156 54.359375 -62.390625 C 56.597656 -61.753906 58.238281 -61.117188 59.28125 -60.484375 L 60.953125 -59.515625 L 52.078125 -41.515625 C 49.441406 -43.753906 45.765625 -44.875 41.046875 -44.875 C 38.484375 -44.875 36.28125 -44.3125 34.4375 -43.1875 C 32.601562 -42.070312 31.304688 -40.710938 30.546875 -39.109375 C 29.785156 -37.515625 29.242188 -36.15625 28.921875 -35.03125 C 28.597656 -33.914062 28.4375 -33.039062 28.4375 -32.40625 L 28.4375 0 Z M 7.203125 0 "/></g></g></g><g fill="#000000" fill-opacity="1"><g transform="translate(222.233093, 220.499986)"><g><path d="M 11.40625 -7.625 C 5.644531 -13.90625 2.765625 -21.601562 2.765625 -30.71875 C 2.765625 -39.84375 5.644531 -47.5625 11.40625 -53.875 C 17.164062 -60.195312 24.484375 -63.359375 33.359375 -63.359375 C 41.515625 -63.359375 48.234375 -60.800781 53.515625 -55.6875 L 53.515625 -61.5625 L 74.765625 -61.5625 L 74.765625 0 L 53.765625 0 L 53.765625 -6.953125 L 53.515625 -6.953125 C 48.234375 -1.117188 41.515625 1.796875 33.359375 1.796875 C 24.484375 1.796875 17.164062 -1.34375 11.40625 -7.625 Z M 29.453125 -41.15625 C 26.691406 -38.4375 25.3125 -34.957031 25.3125 -30.71875 C 25.3125 -26.476562 26.628906 -23.015625 29.265625 -20.328125 C 31.910156 -17.648438 35.394531 -16.3125 39.71875 -16.3125 C 43.875 -16.3125 47.289062 -17.671875 49.96875 -20.390625 C 52.65625 -23.117188 54 -26.5625 54 -30.71875 C 54 -34.957031 52.617188 -38.4375 49.859375 -41.15625 C 47.097656 -43.875 43.71875 -45.234375 39.71875 -45.234375 C 35.632812 -45.234375 32.210938 -43.875 29.453125 -41.15625 Z M 29.453125 -41.15625 "/></g></g></g><g fill="#000000" fill-opacity="1"><g transform="translate(298.313135, 220.499986)"><g><path d="M 7.203125 0 L 7.203125 -61.5625 L 28.4375 -61.5625 L 28.4375 -55.078125 L 28.6875 -55.078125 C 34.195312 -60.597656 40.070312 -63.359375 46.3125 -63.359375 C 49.351562 -63.359375 52.375 -62.957031 55.375 -62.15625 C 58.375 -61.351562 61.253906 -60.113281 64.015625 -58.4375 C 66.773438 -56.757812 69.015625 -54.378906 70.734375 -51.296875 C 72.453125 -48.222656 73.3125 -44.644531 73.3125 -40.5625 L 73.3125 0 L 52.078125 0 L 52.078125 -34.796875 C 52.078125 -37.992188 51.054688 -40.789062 49.015625 -43.1875 C 46.972656 -45.59375 44.316406 -46.796875 41.046875 -46.796875 C 37.835938 -46.796875 34.929688 -45.554688 32.328125 -43.078125 C 29.734375 -40.597656 28.4375 -37.835938 28.4375 -34.796875 L 28.4375 0 Z M 7.203125 0 "/></g></g></g><g fill="#000000" fill-opacity="1"><g transform="translate(100.405319, 150.718891)"><g><path d="M 6.5 -18.296875 C 7.5 -18.296875 8 -17.9375 8 -17.21875 C 8 -16.96875 7.941406 -16.789062 7.828125 -16.6875 C 7.710938 -16.59375 7.578125 -16.503906 7.421875 -16.421875 C 7.273438 -16.335938 7.140625 -16.238281 7.015625 -16.125 C 6.898438 -16.007812 6.84375 -15.800781 6.84375 -15.5 C 6.84375 -14.601562 6.921875 -13.703125 7.078125 -12.796875 C 7.242188 -11.898438 7.445312 -11.015625 7.6875 -10.140625 C 7.925781 -9.265625 8.1875 -8.40625 8.46875 -7.5625 C 8.757812 -6.71875 9.03125 -5.914062 9.28125 -5.15625 L 9.328125 -5.15625 C 9.710938 -6.363281 10.070312 -7.640625 10.40625 -8.984375 C 10.738281 -10.328125 10.90625 -11.734375 10.90625 -13.203125 C 10.90625 -13.867188 10.863281 -14.398438 10.78125 -14.796875 C 10.707031 -15.203125 10.613281 -15.523438 10.5 -15.765625 C 10.382812 -16.003906 10.265625 -16.179688 10.140625 -16.296875 C 10.015625 -16.410156 9.890625 -16.507812 9.765625 -16.59375 C 9.648438 -16.675781 9.554688 -16.769531 9.484375 -16.875 C 9.410156 -16.976562 9.375 -17.132812 9.375 -17.34375 C 9.375 -17.46875 9.390625 -17.582031 9.421875 -17.6875 C 9.453125 -17.789062 9.519531 -17.890625 9.625 -17.984375 C 9.726562 -18.078125 9.878906 -18.148438 10.078125 -18.203125 C 10.273438 -18.265625 10.539062 -18.296875 10.875 -18.296875 L 16.59375 -18.296875 C 17.007812 -18.296875 17.316406 -18.21875 17.515625 -18.0625 C 17.722656 -17.90625 17.828125 -17.632812 17.828125 -17.25 C 17.828125 -17 17.765625 -16.816406 17.640625 -16.703125 C 17.515625 -16.597656 17.367188 -16.507812 17.203125 -16.4375 C 17.046875 -16.363281 16.90625 -16.265625 16.78125 -16.140625 C 16.65625 -16.023438 16.59375 -15.820312 16.59375 -15.53125 C 16.59375 -14.738281 16.710938 -13.835938 16.953125 -12.828125 C 17.203125 -11.828125 17.488281 -10.828125 17.8125 -9.828125 C 18.132812 -8.835938 18.460938 -7.910156 18.796875 -7.046875 C 19.128906 -6.179688 19.390625 -5.5 19.578125 -5 C 19.890625 -5.769531 20.195312 -6.585938 20.5 -7.453125 C 20.8125 -8.316406 21.082031 -9.171875 21.3125 -10.015625 C 21.539062 -10.867188 21.722656 -11.695312 21.859375 -12.5 C 22.003906 -13.300781 22.078125 -14.023438 22.078125 -14.671875 C 22.078125 -15.160156 21.988281 -15.507812 21.8125 -15.71875 C 21.632812 -15.9375 21.4375 -16.109375 21.21875 -16.234375 C 21.007812 -16.359375 20.816406 -16.488281 20.640625 -16.625 C 20.460938 -16.757812 20.375 -16.992188 20.375 -17.328125 C 20.375 -17.691406 20.519531 -17.941406 20.8125 -18.078125 C 21.101562 -18.222656 21.390625 -18.296875 21.671875 -18.296875 L 25.15625 -18.296875 C 25.832031 -18.296875 26.171875 -17.988281 26.171875 -17.375 C 26.171875 -17.15625 26.109375 -16.972656 25.984375 -16.828125 C 25.859375 -16.691406 25.710938 -16.539062 25.546875 -16.375 C 25.378906 -16.207031 25.21875 -16.003906 25.0625 -15.765625 C 24.90625 -15.535156 24.789062 -15.238281 24.71875 -14.875 C 24.632812 -14.351562 24.503906 -13.691406 24.328125 -12.890625 C 24.160156 -12.097656 23.960938 -11.234375 23.734375 -10.296875 C 23.515625 -9.367188 23.269531 -8.414062 23 -7.4375 C 22.726562 -6.457031 22.453125 -5.539062 22.171875 -4.6875 C 21.890625 -3.84375 21.609375 -3.097656 21.328125 -2.453125 C 21.054688 -1.816406 20.804688 -1.363281 20.578125 -1.09375 C 20.378906 -0.863281 20.203125 -0.675781 20.046875 -0.53125 C 19.898438 -0.394531 19.734375 -0.285156 19.546875 -0.203125 C 19.367188 -0.117188 19.144531 -0.0625 18.875 -0.03125 C 18.601562 -0.0078125 18.242188 0 17.796875 0 C 17.117188 0 16.570312 -0.0625 16.15625 -0.1875 C 15.738281 -0.3125 15.359375 -0.628906 15.015625 -1.140625 C 14.671875 -1.660156 14.3125 -2.445312 13.9375 -3.5 C 13.5625 -4.550781 13.082031 -6 12.5 -7.84375 L 12.453125 -7.84375 C 12.097656 -6.59375 11.789062 -5.53125 11.53125 -4.65625 C 11.28125 -3.78125 11.039062 -3.050781 10.8125 -2.46875 C 10.582031 -1.882812 10.359375 -1.429688 10.140625 -1.109375 C 9.929688 -0.785156 9.6875 -0.539062 9.40625 -0.375 C 9.132812 -0.207031 8.828125 -0.101562 8.484375 -0.0625 C 8.140625 -0.0195312 7.738281 0 7.28125 0 C 6.84375 0 6.488281 -0.00390625 6.21875 -0.015625 C 5.957031 -0.0234375 5.722656 -0.0859375 5.515625 -0.203125 C 5.304688 -0.316406 5.109375 -0.507812 4.921875 -0.78125 C 4.742188 -1.0625 4.53125 -1.46875 4.28125 -2 C 4.070312 -2.445312 3.851562 -3.003906 3.625 -3.671875 C 3.394531 -4.335938 3.160156 -5.0625 2.921875 -5.84375 C 2.691406 -6.632812 2.46875 -7.445312 2.25 -8.28125 C 2.03125 -9.125 1.828125 -9.953125 1.640625 -10.765625 C 1.460938 -11.585938 1.296875 -12.363281 1.140625 -13.09375 C 0.992188 -13.832031 0.878906 -14.484375 0.796875 -15.046875 C 0.742188 -15.398438 0.648438 -15.664062 0.515625 -15.84375 C 0.390625 -16.03125 0.257812 -16.1875 0.125 -16.3125 C -0.0078125 -16.4375 -0.128906 -16.566406 -0.234375 -16.703125 C -0.347656 -16.847656 -0.40625 -17.046875 -0.40625 -17.296875 C -0.40625 -17.679688 -0.273438 -17.941406 -0.015625 -18.078125 C 0.242188 -18.222656 0.640625 -18.296875 1.171875 -18.296875 Z M 6.5 -18.296875 "/></g></g></g><g fill="#000000" fill-opacity="1"><g transform="translate(124.926241, 150.718891)"><g><path d="M 8.09375 -10.25 C 7.644531 -10.25 7.289062 -10.085938 7.03125 -9.765625 C 6.78125 -9.453125 6.59375 -9.070312 6.46875 -8.625 C 6.34375 -8.1875 6.257812 -7.726562 6.21875 -7.25 C 6.1875 -6.78125 6.171875 -6.390625 6.171875 -6.078125 C 6.171875 -5.222656 6.222656 -4.53125 6.328125 -4 C 6.441406 -3.46875 6.585938 -3.039062 6.765625 -2.71875 C 6.953125 -2.40625 7.160156 -2.191406 7.390625 -2.078125 C 7.628906 -1.960938 7.875 -1.90625 8.125 -1.90625 C 8.375 -1.90625 8.613281 -1.960938 8.84375 -2.078125 C 9.082031 -2.191406 9.289062 -2.40625 9.46875 -2.71875 C 9.65625 -3.039062 9.800781 -3.46875 9.90625 -4 C 10.019531 -4.53125 10.078125 -5.222656 10.078125 -6.078125 C 10.078125 -6.972656 10.015625 -7.691406 9.890625 -8.234375 C 9.765625 -8.773438 9.609375 -9.195312 9.421875 -9.5 C 9.242188 -9.800781 9.03125 -10 8.78125 -10.09375 C 8.539062 -10.195312 8.3125 -10.25 8.09375 -10.25 Z M 0.421875 -6.078125 C 0.421875 -7.078125 0.640625 -7.96875 1.078125 -8.75 C 1.523438 -9.53125 2.109375 -10.191406 2.828125 -10.734375 C 3.554688 -11.273438 4.382812 -11.6875 5.3125 -11.96875 C 6.238281 -12.257812 7.175781 -12.40625 8.125 -12.40625 C 9.070312 -12.40625 10.003906 -12.257812 10.921875 -11.96875 C 11.835938 -11.6875 12.65625 -11.273438 13.375 -10.734375 C 14.101562 -10.191406 14.691406 -9.53125 15.140625 -8.75 C 15.597656 -7.96875 15.828125 -7.078125 15.828125 -6.078125 C 15.828125 -5.078125 15.601562 -4.179688 15.15625 -3.390625 C 14.71875 -2.609375 14.132812 -1.945312 13.40625 -1.40625 C 12.6875 -0.863281 11.863281 -0.453125 10.9375 -0.171875 C 10.007812 0.109375 9.070312 0.25 8.125 0.25 C 7.175781 0.25 6.238281 0.109375 5.3125 -0.171875 C 4.382812 -0.453125 3.554688 -0.863281 2.828125 -1.40625 C 2.109375 -1.945312 1.523438 -2.609375 1.078125 -3.390625 C 0.640625 -4.179688 0.421875 -5.078125 0.421875 -6.078125 Z M 0.421875 -6.078125 "/></g></g></g><g fill="#000000" fill-opacity="1"><g transform="translate(139.94867, 150.718891)"><g><path d="M 0.28125 -10.296875 C 0.28125 -10.660156 0.46875 -10.941406 0.84375 -11.140625 C 1.21875 -11.347656 1.660156 -11.535156 2.171875 -11.703125 C 2.535156 -11.816406 2.890625 -11.921875 3.234375 -12.015625 C 3.578125 -12.109375 3.882812 -12.179688 4.15625 -12.234375 C 4.4375 -12.296875 4.671875 -12.335938 4.859375 -12.359375 C 5.054688 -12.390625 5.1875 -12.40625 5.25 -12.40625 C 5.695312 -12.40625 5.988281 -12.238281 6.125 -11.90625 C 6.269531 -11.570312 6.378906 -11.1875 6.453125 -10.75 C 6.960938 -11.332031 7.539062 -11.753906 8.1875 -12.015625 C 8.84375 -12.273438 9.570312 -12.40625 10.375 -12.40625 C 11.207031 -12.40625 11.925781 -12.28125 12.53125 -12.03125 C 13.144531 -11.789062 13.644531 -11.445312 14.03125 -11 C 14.425781 -10.5625 14.71875 -10.039062 14.90625 -9.4375 C 15.101562 -8.832031 15.203125 -8.160156 15.203125 -7.421875 L 15.203125 -2.84375 C 15.203125 -2.550781 15.25 -2.332031 15.34375 -2.1875 C 15.445312 -2.039062 15.554688 -1.914062 15.671875 -1.8125 C 15.785156 -1.71875 15.894531 -1.613281 16 -1.5 C 16.101562 -1.382812 16.15625 -1.207031 16.15625 -0.96875 C 16.15625 -0.707031 16.03125 -0.476562 15.78125 -0.28125 C 15.53125 -0.09375 15.238281 0 14.90625 0 L 10 0 C 9.664062 0 9.375 -0.09375 9.125 -0.28125 C 8.875 -0.476562 8.75 -0.707031 8.75 -0.96875 C 8.75 -1.207031 8.796875 -1.382812 8.890625 -1.5 C 8.992188 -1.613281 9.101562 -1.71875 9.21875 -1.8125 C 9.34375 -1.914062 9.453125 -2.039062 9.546875 -2.1875 C 9.648438 -2.332031 9.703125 -2.550781 9.703125 -2.84375 L 9.703125 -7.875 C 9.703125 -8.039062 9.679688 -8.234375 9.640625 -8.453125 C 9.609375 -8.679688 9.546875 -8.898438 9.453125 -9.109375 C 9.367188 -9.316406 9.238281 -9.488281 9.0625 -9.625 C 8.882812 -9.769531 8.644531 -9.84375 8.34375 -9.84375 C 8.050781 -9.84375 7.816406 -9.769531 7.640625 -9.625 C 7.460938 -9.488281 7.328125 -9.316406 7.234375 -9.109375 C 7.140625 -8.898438 7.078125 -8.679688 7.046875 -8.453125 C 7.015625 -8.234375 7 -8.039062 7 -7.875 L 7 -2.84375 C 7 -2.550781 7.046875 -2.332031 7.140625 -2.1875 C 7.242188 -2.039062 7.351562 -1.914062 7.46875 -1.8125 C 7.59375 -1.71875 7.703125 -1.613281 7.796875 -1.5 C 7.898438 -1.382812 7.953125 -1.207031 7.953125 -0.96875 C 7.953125 -0.707031 7.828125 -0.476562 7.578125 -0.28125 C 7.328125 -0.09375 7.035156 0 6.703125 0 L 1.796875 0 C 1.460938 0 1.171875 -0.09375 0.921875 -0.28125 C 0.671875 -0.476562 0.546875 -0.707031 0.546875 -0.96875 C 0.546875 -1.207031 0.59375 -1.382812 0.6875 -1.5 C 0.789062 -1.613281 0.898438 -1.71875 1.015625 -1.8125 C 1.140625 -1.914062 1.25 -2.039062 1.34375 -2.1875 C 1.445312 -2.332031 1.5 -2.550781 1.5 -2.84375 L 1.5 -8.328125 C 1.5 -8.722656 1.4375 -9 1.3125 -9.15625 C 1.1875 -9.320312 1.046875 -9.445312 0.890625 -9.53125 C 0.734375 -9.613281 0.59375 -9.695312 0.46875 -9.78125 C 0.34375 -9.863281 0.28125 -10.035156 0.28125 -10.296875 Z M 0.28125 -10.296875 "/></g></g></g><g fill="#000000" fill-opacity="1"><g transform="translate(154.971099, 150.718891)"><g><path d="M 8.25 -10.25 C 7.800781 -10.25 7.4375 -10.097656 7.15625 -9.796875 C 6.882812 -9.492188 6.671875 -9.128906 6.515625 -8.703125 C 6.367188 -8.285156 6.273438 -7.84375 6.234375 -7.375 C 6.191406 -6.90625 6.171875 -6.515625 6.171875 -6.203125 C 6.171875 -5.421875 6.234375 -4.769531 6.359375 -4.25 C 6.484375 -3.726562 6.640625 -3.3125 6.828125 -3 C 7.023438 -2.6875 7.25 -2.46875 7.5 -2.34375 C 7.75 -2.21875 8 -2.15625 8.25 -2.15625 C 8.632812 -2.15625 8.9375 -2.257812 9.15625 -2.46875 C 9.382812 -2.675781 9.554688 -2.925781 9.671875 -3.21875 C 9.785156 -3.507812 9.859375 -3.804688 9.890625 -4.109375 C 9.929688 -4.421875 9.953125 -4.675781 9.953125 -4.875 L 9.953125 -7.53125 C 9.953125 -7.726562 9.929688 -7.976562 9.890625 -8.28125 C 9.859375 -8.59375 9.785156 -8.894531 9.671875 -9.1875 C 9.554688 -9.476562 9.382812 -9.726562 9.15625 -9.9375 C 8.9375 -10.144531 8.632812 -10.25 8.25 -10.25 Z M 8.46875 -17.125 C 8.46875 -17.40625 8.628906 -17.640625 8.953125 -17.828125 C 9.285156 -18.023438 9.691406 -18.195312 10.171875 -18.34375 C 10.835938 -18.5625 11.484375 -18.722656 12.109375 -18.828125 C 12.734375 -18.941406 13.222656 -19 13.578125 -19 C 13.921875 -19 14.207031 -18.953125 14.4375 -18.859375 C 14.675781 -18.765625 14.863281 -18.644531 15 -18.5 C 15.144531 -18.363281 15.25 -18.21875 15.3125 -18.0625 C 15.375 -17.90625 15.40625 -17.769531 15.40625 -17.65625 L 15.40625 -3.421875 C 15.40625 -3.023438 15.4375 -2.71875 15.5 -2.5 C 15.5625 -2.28125 15.644531 -2.113281 15.75 -2 C 15.851562 -1.882812 15.957031 -1.804688 16.0625 -1.765625 C 16.164062 -1.722656 16.269531 -1.671875 16.375 -1.609375 C 16.476562 -1.554688 16.5625 -1.484375 16.625 -1.390625 C 16.6875 -1.296875 16.71875 -1.140625 16.71875 -0.921875 C 16.71875 -0.804688 16.707031 -0.691406 16.6875 -0.578125 C 16.664062 -0.472656 16.601562 -0.375 16.5 -0.28125 C 16.394531 -0.195312 16.242188 -0.128906 16.046875 -0.078125 C 15.847656 -0.0234375 15.582031 0 15.25 0 L 11.75 0 C 11.46875 0 11.242188 -0.0234375 11.078125 -0.078125 C 10.921875 -0.140625 10.789062 -0.222656 10.6875 -0.328125 C 10.59375 -0.441406 10.515625 -0.582031 10.453125 -0.75 C 10.398438 -0.914062 10.34375 -1.113281 10.28125 -1.34375 C 9.925781 -0.84375 9.453125 -0.453125 8.859375 -0.171875 C 8.265625 0.109375 7.519531 0.25 6.625 0.25 C 5.726562 0.25 4.898438 0.0976562 4.140625 -0.203125 C 3.378906 -0.515625 2.722656 -0.945312 2.171875 -1.5 C 1.617188 -2.050781 1.1875 -2.703125 0.875 -3.453125 C 0.570312 -4.203125 0.421875 -5.019531 0.421875 -5.90625 C 0.421875 -6.90625 0.613281 -7.800781 1 -8.59375 C 1.394531 -9.394531 1.914062 -10.078125 2.5625 -10.640625 C 3.21875 -11.210938 3.972656 -11.648438 4.828125 -11.953125 C 5.691406 -12.253906 6.597656 -12.40625 7.546875 -12.40625 C 7.785156 -12.40625 8 -12.382812 8.1875 -12.34375 C 8.375 -12.3125 8.554688 -12.257812 8.734375 -12.1875 C 8.910156 -12.125 9.085938 -12.046875 9.265625 -11.953125 C 9.453125 -11.867188 9.664062 -11.769531 9.90625 -11.65625 L 9.90625 -14.921875 C 9.90625 -15.421875 9.828125 -15.765625 9.671875 -15.953125 C 9.523438 -16.148438 9.363281 -16.285156 9.1875 -16.359375 C 9.007812 -16.429688 8.84375 -16.503906 8.6875 -16.578125 C 8.539062 -16.660156 8.46875 -16.84375 8.46875 -17.125 Z M 8.46875 -17.125 "/></g></g></g><g fill="#000000" fill-opacity="1"><g transform="translate(170.493452, 150.718891)"><g><path d="M 8.203125 -10.25 C 7.878906 -10.25 7.59375 -10.144531 7.34375 -9.9375 C 7.09375 -9.726562 6.878906 -9.445312 6.703125 -9.09375 C 6.535156 -8.75 6.40625 -8.34375 6.3125 -7.875 C 6.21875 -7.40625 6.164062 -6.914062 6.15625 -6.40625 C 6.519531 -6.414062 6.882812 -6.476562 7.25 -6.59375 C 7.613281 -6.71875 7.9375 -6.882812 8.21875 -7.09375 C 8.507812 -7.3125 8.738281 -7.570312 8.90625 -7.875 C 9.082031 -8.1875 9.171875 -8.546875 9.171875 -8.953125 C 9.171875 -9.210938 9.101562 -9.492188 8.96875 -9.796875 C 8.84375 -10.097656 8.585938 -10.25 8.203125 -10.25 Z M 0.421875 -5.90625 C 0.421875 -6.96875 0.65625 -7.898438 1.125 -8.703125 C 1.601562 -9.515625 2.222656 -10.195312 2.984375 -10.75 C 3.742188 -11.300781 4.597656 -11.710938 5.546875 -11.984375 C 6.492188 -12.265625 7.445312 -12.40625 8.40625 -12.40625 C 9.351562 -12.40625 10.1875 -12.296875 10.90625 -12.078125 C 11.632812 -11.859375 12.242188 -11.570312 12.734375 -11.21875 C 13.222656 -10.875 13.59375 -10.476562 13.84375 -10.03125 C 14.09375 -9.59375 14.21875 -9.15625 14.21875 -8.71875 C 14.21875 -7.96875 13.992188 -7.34375 13.546875 -6.84375 C 13.097656 -6.34375 12.503906 -5.929688 11.765625 -5.609375 C 11.035156 -5.285156 10.195312 -5.019531 9.25 -4.8125 C 8.3125 -4.601562 7.351562 -4.414062 6.375 -4.25 C 6.5625 -3.664062 6.882812 -3.160156 7.34375 -2.734375 C 7.8125 -2.304688 8.40625 -2.09375 9.125 -2.09375 C 9.726562 -2.09375 10.238281 -2.195312 10.65625 -2.40625 C 11.070312 -2.613281 11.4375 -2.84375 11.75 -3.09375 C 12.0625 -3.34375 12.347656 -3.570312 12.609375 -3.78125 C 12.867188 -3.988281 13.140625 -4.09375 13.421875 -4.09375 C 13.660156 -4.09375 13.882812 -4.019531 14.09375 -3.875 C 14.300781 -3.738281 14.40625 -3.53125 14.40625 -3.25 C 14.40625 -2.8125 14.195312 -2.382812 13.78125 -1.96875 C 13.375 -1.550781 12.851562 -1.175781 12.21875 -0.84375 C 11.59375 -0.507812 10.882812 -0.242188 10.09375 -0.046875 C 9.3125 0.148438 8.546875 0.25 7.796875 0.25 C 6.878906 0.25 5.976562 0.117188 5.09375 -0.140625 C 4.21875 -0.398438 3.429688 -0.785156 2.734375 -1.296875 C 2.046875 -1.816406 1.488281 -2.457031 1.0625 -3.21875 C 0.632812 -3.988281 0.421875 -4.882812 0.421875 -5.90625 Z M 0.421875 -5.90625 "/></g></g></g><g fill="#000000" fill-opacity="1"><g transform="translate(184.016122, 150.718891)"><g><path d="M 0.28125 -10.34375 C 0.28125 -10.644531 0.410156 -10.890625 0.671875 -11.078125 C 0.941406 -11.273438 1.332031 -11.457031 1.84375 -11.625 C 2.21875 -11.738281 2.585938 -11.84375 2.953125 -11.9375 C 3.316406 -12.039062 3.65625 -12.125 3.96875 -12.1875 C 4.289062 -12.257812 4.5625 -12.3125 4.78125 -12.34375 C 5.007812 -12.382812 5.164062 -12.40625 5.25 -12.40625 C 5.550781 -12.40625 5.789062 -12.320312 5.96875 -12.15625 C 6.15625 -12 6.300781 -11.800781 6.40625 -11.5625 C 6.519531 -11.332031 6.597656 -11.085938 6.640625 -10.828125 C 6.679688 -10.578125 6.707031 -10.34375 6.71875 -10.125 L 6.71875 -10.09375 L 6.78125 -10.09375 C 7.113281 -10.757812 7.5625 -11.3125 8.125 -11.75 C 8.6875 -12.1875 9.320312 -12.40625 10.03125 -12.40625 C 10.65625 -12.40625 11.164062 -12.179688 11.5625 -11.734375 C 11.957031 -11.296875 12.15625 -10.773438 12.15625 -10.171875 C 12.15625 -9.554688 11.957031 -9.046875 11.5625 -8.640625 C 11.164062 -8.242188 10.671875 -8.046875 10.078125 -8.046875 C 9.804688 -8.046875 9.550781 -8.085938 9.3125 -8.171875 C 9.070312 -8.253906 8.828125 -8.296875 8.578125 -8.296875 C 8.242188 -8.296875 7.988281 -8.132812 7.8125 -7.8125 C 7.632812 -7.5 7.546875 -7.160156 7.546875 -6.796875 L 7.546875 -3 C 7.546875 -2.644531 7.613281 -2.394531 7.75 -2.25 C 7.882812 -2.101562 8.03125 -1.984375 8.1875 -1.890625 C 8.34375 -1.796875 8.488281 -1.691406 8.625 -1.578125 C 8.757812 -1.460938 8.828125 -1.257812 8.828125 -0.96875 C 8.828125 -0.875 8.8125 -0.765625 8.78125 -0.640625 C 8.757812 -0.523438 8.695312 -0.414062 8.59375 -0.3125 C 8.5 -0.21875 8.347656 -0.140625 8.140625 -0.078125 C 7.941406 -0.0234375 7.671875 0 7.328125 0 L 2.28125 0 C 1.945312 0 1.675781 -0.0234375 1.46875 -0.078125 C 1.269531 -0.140625 1.117188 -0.21875 1.015625 -0.3125 C 0.921875 -0.40625 0.859375 -0.507812 0.828125 -0.625 C 0.796875 -0.738281 0.78125 -0.851562 0.78125 -0.96875 C 0.78125 -1.257812 0.84375 -1.457031 0.96875 -1.5625 C 1.101562 -1.664062 1.25 -1.769531 1.40625 -1.875 C 1.570312 -1.976562 1.71875 -2.101562 1.84375 -2.25 C 1.976562 -2.394531 2.046875 -2.644531 2.046875 -3 L 2.046875 -7.421875 C 2.046875 -8.023438 1.953125 -8.457031 1.765625 -8.71875 C 1.585938 -8.988281 1.382812 -9.191406 1.15625 -9.328125 C 0.9375 -9.460938 0.734375 -9.59375 0.546875 -9.71875 C 0.367188 -9.84375 0.28125 -10.050781 0.28125 -10.34375 Z M 0.28125 -10.34375 "/></g></g></g><g fill="#000000" fill-opacity="1"><g transform="translate(194.789223, 150.718891)"><g><path d="M 2 -12.15625 C 1.945312 -13.019531 1.988281 -13.863281 2.125 -14.6875 C 2.257812 -15.507812 2.535156 -16.238281 2.953125 -16.875 C 3.367188 -17.507812 3.953125 -18.019531 4.703125 -18.40625 C 5.453125 -18.800781 6.414062 -19 7.59375 -19 C 8.582031 -19 9.382812 -18.828125 10 -18.484375 C 10.613281 -18.140625 10.921875 -17.617188 10.921875 -16.921875 C 10.921875 -16.421875 10.753906 -16.007812 10.421875 -15.6875 C 10.085938 -15.363281 9.671875 -15.203125 9.171875 -15.203125 C 8.523438 -15.203125 7.976562 -15.484375 7.53125 -16.046875 C 7.507812 -15.765625 7.484375 -15.484375 7.453125 -15.203125 C 7.421875 -14.921875 7.40625 -14.660156 7.40625 -14.421875 L 7.40625 -12.15625 C 7.71875 -12.132812 8.023438 -12.128906 8.328125 -12.140625 C 8.640625 -12.160156 8.921875 -12.144531 9.171875 -12.09375 C 9.421875 -12.050781 9.617188 -11.945312 9.765625 -11.78125 C 9.921875 -11.613281 10 -11.335938 10 -10.953125 C 10 -10.566406 9.921875 -10.289062 9.765625 -10.125 C 9.617188 -9.957031 9.425781 -9.847656 9.1875 -9.796875 C 8.945312 -9.742188 8.679688 -9.726562 8.390625 -9.75 C 8.097656 -9.769531 7.800781 -9.769531 7.5 -9.75 L 7.5 -3 C 7.5 -2.644531 7.566406 -2.394531 7.703125 -2.25 C 7.835938 -2.101562 7.984375 -1.976562 8.140625 -1.875 C 8.296875 -1.769531 8.441406 -1.664062 8.578125 -1.5625 C 8.710938 -1.457031 8.78125 -1.257812 8.78125 -0.96875 C 8.78125 -0.320312 8.28125 0 7.28125 0 L 2.21875 0 C 1.21875 0 0.71875 -0.320312 0.71875 -0.96875 C 0.71875 -1.257812 0.785156 -1.457031 0.921875 -1.5625 C 1.054688 -1.664062 1.203125 -1.769531 1.359375 -1.875 C 1.515625 -1.976562 1.660156 -2.101562 1.796875 -2.25 C 1.929688 -2.394531 2 -2.644531 2 -3 L 2 -9.75 C 1.769531 -9.75 1.550781 -9.753906 1.34375 -9.765625 C 1.144531 -9.785156 0.96875 -9.832031 0.8125 -9.90625 C 0.664062 -9.988281 0.546875 -10.113281 0.453125 -10.28125 C 0.367188 -10.445312 0.328125 -10.671875 0.328125 -10.953125 C 0.328125 -11.515625 0.488281 -11.859375 0.8125 -11.984375 C 1.132812 -12.109375 1.53125 -12.164062 2 -12.15625 Z M 2 -12.15625 "/></g></g></g><g fill="#000000" fill-opacity="1"><g transform="translate(203.31268, 150.718891)"><g><path d="M 4.34375 -12.296875 C 4.53125 -12.328125 4.707031 -12.351562 4.875 -12.375 C 5.039062 -12.394531 5.179688 -12.40625 5.296875 -12.40625 C 5.796875 -12.40625 6.175781 -12.285156 6.4375 -12.046875 C 6.695312 -11.816406 6.828125 -11.34375 6.828125 -10.625 L 6.828125 -4.40625 C 6.828125 -4.164062 6.84375 -3.921875 6.875 -3.671875 C 6.90625 -3.421875 6.96875 -3.195312 7.0625 -3 C 7.164062 -2.800781 7.304688 -2.632812 7.484375 -2.5 C 7.660156 -2.363281 7.882812 -2.296875 8.15625 -2.296875 C 8.414062 -2.296875 8.632812 -2.363281 8.8125 -2.5 C 8.988281 -2.632812 9.125 -2.800781 9.21875 -3 C 9.320312 -3.195312 9.390625 -3.421875 9.421875 -3.671875 C 9.453125 -3.921875 9.46875 -4.164062 9.46875 -4.40625 L 9.46875 -9.09375 C 9.46875 -9.332031 9.410156 -9.503906 9.296875 -9.609375 C 9.179688 -9.722656 9.054688 -9.816406 8.921875 -9.890625 C 8.785156 -9.960938 8.660156 -10.046875 8.546875 -10.140625 C 8.429688 -10.242188 8.375 -10.394531 8.375 -10.59375 C 8.375 -10.84375 8.421875 -11.046875 8.515625 -11.203125 C 8.617188 -11.367188 8.835938 -11.492188 9.171875 -11.578125 L 12.46875 -12.296875 C 12.570312 -12.328125 12.695312 -12.351562 12.84375 -12.375 C 13 -12.394531 13.191406 -12.40625 13.421875 -12.40625 C 13.941406 -12.40625 14.328125 -12.289062 14.578125 -12.0625 C 14.835938 -11.832031 14.96875 -11.351562 14.96875 -10.625 L 14.96875 -3.046875 C 14.96875 -2.679688 15.035156 -2.421875 15.171875 -2.265625 C 15.304688 -2.117188 15.453125 -1.992188 15.609375 -1.890625 C 15.765625 -1.796875 15.910156 -1.6875 16.046875 -1.5625 C 16.179688 -1.4375 16.25 -1.222656 16.25 -0.921875 C 16.25 -0.804688 16.234375 -0.691406 16.203125 -0.578125 C 16.171875 -0.472656 16.101562 -0.375 16 -0.28125 C 15.894531 -0.195312 15.75 -0.128906 15.5625 -0.078125 C 15.375 -0.0234375 15.113281 0 14.78125 0 L 11.46875 0 C 11.175781 0 10.941406 -0.0195312 10.765625 -0.0625 C 10.585938 -0.101562 10.441406 -0.175781 10.328125 -0.28125 C 10.210938 -0.394531 10.125 -0.535156 10.0625 -0.703125 C 10 -0.878906 9.945312 -1.09375 9.90625 -1.34375 C 9.269531 -0.757812 8.628906 -0.347656 7.984375 -0.109375 C 7.347656 0.128906 6.585938 0.25 5.703125 0.25 C 4.953125 0.25 4.300781 0.164062 3.75 0 C 3.195312 -0.164062 2.738281 -0.441406 2.375 -0.828125 C 2.019531 -1.222656 1.753906 -1.726562 1.578125 -2.34375 C 1.410156 -2.96875 1.328125 -3.726562 1.328125 -4.625 L 1.328125 -9.078125 C 1.328125 -9.335938 1.265625 -9.53125 1.140625 -9.65625 C 1.023438 -9.78125 0.898438 -9.890625 0.765625 -9.984375 C 0.640625 -10.078125 0.515625 -10.175781 0.390625 -10.28125 C 0.273438 -10.394531 0.21875 -10.578125 0.21875 -10.828125 C 0.21875 -11.078125 0.304688 -11.265625 0.484375 -11.390625 C 0.660156 -11.523438 0.84375 -11.613281 1.03125 -11.65625 Z M 4.34375 -12.296875 "/></g></g></g><g fill="#000000" fill-opacity="1"><g transform="translate(218.835033, 150.718891)"><g><path d="M 0.28125 -17.09375 C 0.28125 -17.382812 0.414062 -17.632812 0.6875 -17.84375 C 0.957031 -18.050781 1.40625 -18.195312 2.03125 -18.28125 C 3.03125 -18.40625 3.863281 -18.5625 4.53125 -18.75 C 5.195312 -18.9375 5.675781 -19.019531 5.96875 -19 C 6.070312 -19 6.191406 -18.984375 6.328125 -18.953125 C 6.472656 -18.921875 6.613281 -18.832031 6.75 -18.6875 C 6.882812 -18.539062 6.992188 -18.320312 7.078125 -18.03125 C 7.171875 -17.738281 7.21875 -17.335938 7.21875 -16.828125 L 7.21875 -2.84375 C 7.21875 -2.550781 7.285156 -2.332031 7.421875 -2.1875 C 7.554688 -2.039062 7.707031 -1.914062 7.875 -1.8125 C 8.039062 -1.71875 8.191406 -1.613281 8.328125 -1.5 C 8.460938 -1.394531 8.53125 -1.21875 8.53125 -0.96875 C 8.53125 -0.707031 8.40625 -0.476562 8.15625 -0.28125 C 7.90625 -0.09375 7.613281 0 7.28125 0 L 1.671875 0 C 1.335938 0 1.046875 -0.09375 0.796875 -0.28125 C 0.546875 -0.476562 0.421875 -0.707031 0.421875 -0.96875 C 0.421875 -1.21875 0.488281 -1.394531 0.625 -1.5 C 0.757812 -1.613281 0.910156 -1.71875 1.078125 -1.8125 C 1.242188 -1.914062 1.390625 -2.039062 1.515625 -2.1875 C 1.648438 -2.332031 1.71875 -2.550781 1.71875 -2.84375 L 1.71875 -15.15625 C 1.71875 -15.46875 1.644531 -15.691406 1.5 -15.828125 C 1.351562 -15.972656 1.1875 -16.09375 1 -16.1875 C 0.8125 -16.28125 0.644531 -16.382812 0.5 -16.5 C 0.351562 -16.613281 0.28125 -16.8125 0.28125 -17.09375 Z M 0.28125 -17.09375 "/></g></g></g><g transform="matrix(1, 0, 0, 1, 0, 121)"><g clip-path="url(#5feca4e3be)"><g clip-path="url(#005130f900)"><g clip-path="url(#1df39973ae)"><g transform="matrix(1, 0, 0, 1, 0, 0)"><g clip-path="url(#fc31205792)"><g clip-path="url(#e1f87d352b)"><g clip-path="url(#c67d1c763f)"><path fill="#000000" d="M 0 0.785156 L 98.183594 0.785156 L 98.183594 98.96875 L 0 98.96875 Z M 0 0.785156 " fill-opacity="1" fill-rule="nonzero"/></g></g></g></g></g></g><path fill="#ffffff" d="M 82.746094 29.074219 L 82.648438 29.132812 C 82.1875 29.414062 81.917969 29.726562 81.832031 30.066406 C 81.703125 30.40625 81.648438 31.066406 81.671875 32.050781 C 81.679688 32.414062 81.695312 32.78125 81.714844 33.160156 L 82.550781 50.097656 C 82.871094 54.238281 83.085938 57.46875 83.203125 59.785156 C 83.28125 61.402344 83.316406 62.347656 83.316406 62.621094 C 83.339844 63.363281 83.359375 64.785156 83.371094 66.886719 L 83.402344 67.808594 C 83.414062 68.066406 83.4375 68.261719 83.464844 68.398438 C 83.480469 68.539062 83.53125 68.605469 83.621094 68.589844 C 83.835938 68.601562 84.527344 66.34375 85.707031 61.828125 L 84.65625 38.234375 C 84.679688 37.101562 84.757812 36.535156 84.890625 36.535156 C 84.9375 36.421875 85.226562 36.753906 85.75 37.539062 C 85.863281 37.628906 85.945312 37.613281 85.992188 37.488281 C 86.09375 37.335938 86.125 36.460938 86.085938 34.867188 L 82.746094 29.074219 " fill-opacity="1" fill-rule="nonzero"/><g clip-path="url(#32253ccd0e)"><path fill="#ffffff" d="M 89.628906 45.042969 L 89.644531 44.996094 C 89.707031 44.820312 89.714844 44.664062 89.660156 44.523438 C 89.5625 44.296875 89.441406 44.164062 89.296875 44.117188 C 89.082031 44.019531 88.792969 44.140625 88.421875 44.480469 C 87.953125 44.980469 87.511719 45.613281 87.097656 46.382812 C 86.753906 47.039062 86.554688 47.441406 86.503906 47.589844 C 86.386719 47.863281 86.277344 48.140625 86.183594 48.414062 C 85.90625 49.246094 85.78125 49.980469 85.804688 50.613281 C 85.832031 51.246094 85.988281 51.6875 86.28125 51.9375 C 86.527344 52.140625 86.882812 52.164062 87.347656 52.011719 C 87.804688 51.859375 88.472656 51.507812 89.347656 50.949219 L 89.667969 49.050781 C 88.804688 49.507812 88.226562 49.726562 87.929688 49.703125 C 87.773438 49.691406 87.660156 49.628906 87.59375 49.515625 C 87.558594 49.460938 87.53125 49.394531 87.511719 49.320312 C 87.492188 49.292969 87.484375 49.164062 87.488281 48.933594 C 87.539062 48.425781 87.742188 47.855469 88.101562 47.222656 C 88.308594 46.847656 88.53125 46.46875 88.773438 46.085938 L 89.628906 45.042969 " fill-opacity="1" fill-rule="nonzero"/></g><path fill="#ffffff" d="M 72.300781 63.175781 L 72.402344 63.183594 C 72.578125 63.230469 72.679688 63.273438 72.722656 63.304688 C 72.792969 63.351562 72.875 63.394531 72.949219 63.460938 C 73.230469 63.695312 73.425781 63.929688 73.542969 64.160156 C 73.628906 64.328125 73.6875 64.511719 73.710938 64.714844 C 73.753906 65.035156 73.738281 65.308594 73.699219 65.527344 C 73.640625 65.84375 73.609375 66.015625 73.601562 66.046875 C 73.515625 66.371094 73.464844 66.574219 73.429688 66.652344 C 73.304688 66.9375 73.175781 67.144531 73.058594 67.289062 C 73.023438 67.328125 72.917969 67.445312 72.710938 67.609375 C 72.625 67.675781 72.527344 67.730469 72.429688 67.78125 C 72.199219 67.902344 71.953125 67.976562 71.6875 67.953125 C 71.480469 67.9375 71.351562 67.855469 71.28125 67.765625 C 71.152344 67.601562 71.066406 67.453125 71.023438 67.316406 C 70.949219 67.085938 70.886719 66.820312 70.855469 66.515625 C 70.832031 66.308594 70.828125 66.175781 70.828125 66.117188 C 70.828125 65.898438 70.835938 65.714844 70.859375 65.554688 C 70.933594 65.054688 71.144531 64.480469 71.535156 63.855469 C 71.839844 63.367188 72.109375 63.148438 72.300781 63.175781 M 77.550781 23.0625 L 77.191406 23.164062 C 76.296875 23.488281 75.835938 24.246094 75.925781 25.425781 C 77.445312 45.992188 78.519531 61.113281 79.042969 70.792969 L 77.25 72.640625 C 75.605469 73.785156 73.976562 73.496094 72.367188 71.777344 C 72.277344 71.511719 72.351562 71.222656 72.597656 70.90625 C 73.574219 70.21875 74.648438 69.230469 75.433594 67.710938 C 76.121094 66.378906 76.234375 65.132812 76.101562 64.164062 C 75.84375 62.304688 75.335938 60.996094 74.496094 60.449219 C 73.558594 59.835938 72.675781 59.824219 71.992188 60.195312 C 70.6875 60.910156 69.820312 61.824219 69.429688 62.9375 C 69.140625 63.753906 68.988281 64.621094 68.929688 65.519531 L 69.039062 68.421875 L 69.179688 69.171875 C 69.171875 69.472656 69.097656 69.691406 68.984375 69.84375 C 68.785156 70.117188 68.3125 70.429688 67.546875 70.765625 L 62.113281 72.832031 C 61.4375 73.152344 60.773438 73.558594 60.121094 74.042969 L 58.179688 75.921875 C 56.773438 77.960938 54.804688 80.304688 52.304688 82.984375 C 51.226562 84.136719 50.253906 84.734375 49.355469 84.757812 C 47.417969 83.910156 46.980469 81.148438 48.050781 76.460938 C 51.394531 73.703125 53.09375 71.554688 53.121094 70.015625 C 53.140625 69.152344 52.945312 68.113281 52.570312 66.894531 L 50.757812 62.316406 C 50.742188 62.121094 50.828125 61.996094 51.019531 61.941406 L 52.742188 62.222656 C 52.921875 62.207031 52.988281 62.125 52.945312 61.980469 C 51.546875 59.882812 50.320312 58.355469 49.3125 57.347656 C 48.398438 56.429688 47.855469 57.761719 47.628906 61.390625 L 50.863281 67.671875 C 51.28125 68.921875 51.328125 69.75 51 70.15625 C 50.832031 70.960938 49.351562 72.300781 46.464844 74.027344 C 43.820312 75.613281 41.78125 76.433594 40.523438 76.898438 C 35.160156 78.878906 31.289062 78.976562 28.679688 77.140625 C 27.476562 76.292969 26.492188 75.089844 25.78125 73.367188 C 25.5 72.6875 25.449219 70.144531 25.6875 65.707031 L 24.007812 66.335938 C 22.34375 74.671875 23.171875 79.789062 26.449219 81.742188 C 28.886719 83.195312 31.488281 83.746094 34.300781 83.363281 C 36.808594 83.023438 40.488281 81.351562 45.328125 78.328125 C 45.0625 81.289062 45.054688 82.90625 45.300781 83.171875 C 45.480469 84.042969 45.789062 84.78125 46.21875 85.382812 C 46.648438 85.984375 47.203125 86.449219 47.886719 86.78125 L 49 87.175781 C 50.085938 87.40625 50.738281 87.429688 50.953125 87.242188 C 51.738281 87.050781 52.625 86.417969 53.699219 85.445312 C 54.050781 85.132812 56.203125 82.503906 60.082031 77.464844 C 60.34375 77.125 60.855469 76.757812 61.613281 76.363281 L 70.398438 72.519531 C 70.992188 75.476562 72.867188 76.949219 75.890625 76.261719 C 77.75 75.835938 79.101562 73.992188 80.222656 71.429688 C 80.320312 71.207031 80.582031 70.453125 80.921875 69.128906 L 79.042969 29.859375 C 79.996094 31.015625 80.433594 30.8125 80.328125 29.253906 C 80.304688 28.902344 80.246094 28.53125 80.054688 28.203125 C 78.710938 25.910156 77.835938 24.222656 77.550781 23.0625 Z M 77.550781 23.0625 " fill-opacity="1" fill-rule="nonzero"/><path fill="#ffffff" d="M 71.847656 24.609375 L 71.941406 24.734375 C 72.425781 25.421875 72.75 25.707031 72.914062 25.585938 C 73.035156 25.488281 73.109375 25.273438 73.136719 24.929688 C 73.167969 24.40625 73.148438 24.003906 73.082031 23.71875 C 73.019531 23.402344 72.921875 23.105469 72.792969 22.828125 L 71.652344 20.554688 C 71.542969 20.359375 71.25 19.648438 70.769531 18.425781 L 70.46875 17.824219 C 70.1875 17.351562 69.882812 17.238281 69.5625 17.480469 C 69.050781 17.90625 68.773438 18.433594 68.726562 19.0625 C 68.730469 19.378906 68.847656 19.734375 69.078125 20.132812 C 69.675781 32.8125 70.117188 41.628906 70.394531 46.585938 C 70.625 50.707031 70.816406 52.890625 70.972656 53.136719 C 71 53.179688 71.039062 53.148438 71.085938 53.046875 C 71.609375 51.59375 71.988281 50.472656 72.222656 49.683594 C 72.488281 48.75 72.660156 47.898438 72.734375 47.125 L 71.804688 32.910156 L 71.65625 29.441406 C 71.570312 27.035156 71.539062 25.671875 71.570312 25.355469 C 71.589844 24.671875 71.683594 24.421875 71.847656 24.609375 " fill-opacity="1" fill-rule="nonzero"/><path fill="#ffffff" d="M 55.90625 35.96875 L 56.011719 36.089844 C 56.5625 36.765625 56.9375 37.046875 57.140625 36.9375 C 57.355469 36.898438 57.566406 36.316406 57.761719 35.195312 C 57.375 34.601562 56.617188 33.152344 55.488281 30.847656 C 55.242188 30.382812 55 29.988281 54.769531 29.664062 C 54.339844 29.0625 53.957031 28.910156 53.613281 29.207031 C 53.453125 29.296875 53.175781 29.695312 52.785156 30.402344 C 52.621094 30.742188 52.535156 31.085938 52.53125 31.433594 C 52.519531 31.871094 52.578125 32.503906 52.707031 33.332031 C 53.460938 52.339844 53.988281 63.949219 54.285156 68.164062 C 54.511719 71.582031 54.6875 73.667969 54.804688 74.410156 C 54.921875 75.496094 55.085938 76.242188 55.289062 76.652344 C 55.40625 76.878906 55.558594 76.75 55.753906 76.265625 C 56.371094 73.898438 56.96875 71.894531 57.550781 70.25 L 55.90625 35.96875 " fill-opacity="1" fill-rule="nonzero"/><path fill="#ffffff" d="M 72.898438 53.824219 L 72.328125 54.609375 L 70.136719 53.933594 L 68.085938 56.613281 L 71.289062 58.808594 L 72.839844 56.652344 L 74.851562 57.761719 L 77.132812 54.667969 L 73.898438 52.601562 L 72.898438 53.824219 " fill-opacity="1" fill-rule="nonzero"/><path fill="#ffffff" d="M 62.125 80.589844 L 62.292969 80.617188 C 63.324219 80.777344 64.007812 81.0625 64.339844 81.476562 C 64.453125 81.578125 64.621094 81.808594 64.847656 82.171875 L 66.023438 84.34375 C 66.296875 84.769531 66.492188 85.023438 66.605469 85.09375 C 66.902344 85.375 67.300781 85.371094 67.792969 85.085938 C 67.835938 85.0625 67.878906 85.039062 67.921875 85.011719 C 68.140625 84.089844 68.265625 83.472656 68.308594 83.164062 C 68.359375 82.855469 68.394531 82.542969 68.414062 82.234375 L 68.464844 80.527344 C 68.472656 80.308594 68.515625 80.109375 68.597656 79.941406 C 68.730469 79.730469 68.949219 79.695312 69.261719 79.835938 C 69.417969 79.914062 69.550781 80.007812 69.664062 80.117188 L 70.3125 80.832031 C 70.390625 80.890625 70.476562 80.917969 70.574219 80.90625 C 70.703125 80.886719 70.863281 80.804688 71.050781 80.65625 C 71.191406 80.191406 71.28125 79.867188 71.324219 79.671875 C 71.515625 78.832031 71.472656 78.1875 71.195312 77.734375 C 70.796875 77.097656 70.328125 76.738281 69.785156 76.660156 C 69.027344 76.53125 68.394531 76.785156 67.890625 77.429688 C 67.703125 77.667969 67.53125 77.921875 67.367188 78.195312 C 67.257812 79.472656 67.046875 80.175781 66.726562 80.304688 C 66.640625 80.320312 66.558594 80.285156 66.484375 80.199219 C 66.015625 79.527344 65.707031 79.148438 65.554688 79.054688 C 65.28125 78.824219 64.964844 78.632812 64.601562 78.472656 C 63.546875 78.023438 62.722656 77.953125 62.121094 78.257812 C 61.875 78.390625 61.667969 78.570312 61.507812 78.792969 C 61.277344 79.140625 61.175781 79.40625 61.195312 79.59375 C 61.199219 79.804688 61.28125 79.984375 61.441406 80.128906 C 61.566406 80.253906 61.792969 80.40625 62.125 80.589844 " fill-opacity="1" fill-rule="nonzero"/><path fill="#ffffff" d="M 64.195312 21.386719 L 64.390625 21.53125 C 65.367188 22.550781 65.816406 22.007812 65.746094 19.902344 C 64.992188 18.601562 64.089844 16.871094 63.035156 14.710938 C 62.214844 13.445312 61.609375 14.003906 61.222656 16.382812 C 61.160156 16.964844 61.175781 17.953125 61.273438 19.34375 C 62.734375 35.757812 63.535156 46.554688 63.679688 51.742188 C 63.730469 52.675781 63.632812 53.351562 63.386719 53.777344 C 62.960938 54.230469 62.308594 54.554688 61.433594 54.742188 C 60.402344 55.019531 59.0625 54.597656 57.410156 53.472656 C 53.289062 50.757812 42.082031 43.570312 23.792969 31.910156 C 23.167969 31.46875 22.878906 31.15625 22.933594 30.964844 C 22.597656 30.566406 23.929688 29.707031 26.921875 28.386719 C 34.144531 25.382812 39.242188 23.375 42.214844 22.359375 C 47.828125 20.386719 51.777344 19.597656 54.058594 19.988281 C 56.078125 20.371094 56.695312 21.488281 55.910156 23.339844 C 55.578125 23.992188 55.125 24.546875 54.546875 25.007812 L 51.296875 27.167969 C 50.867188 27.484375 50.4375 27.910156 50.007812 28.445312 C 49.210938 29.507812 48.410156 30.792969 47.597656 32.300781 C 46.667969 33.992188 46.355469 34.757812 46.65625 34.59375 C 50.324219 30.679688 53.800781 27.390625 57.089844 24.726562 C 57.507812 24.324219 57.871094 23.894531 58.183594 23.441406 C 59.464844 21.09375 59.242188 18.992188 57.515625 17.144531 C 56.484375 15.652344 50.910156 16.441406 40.789062 19.511719 C 30.089844 22.8125 23.351562 25.710938 20.578125 28.199219 C 20.085938 28.644531 19.628906 29.414062 19.203125 30.503906 C 19.132812 30.929688 19.269531 31.328125 19.613281 31.699219 C 20.398438 32.558594 21.324219 33.363281 22.394531 34.113281 L 31.851562 40.929688 C 33.570312 42.230469 35.105469 43.519531 36.449219 44.792969 C 39.738281 47.886719 41.511719 50.683594 41.761719 53.183594 C 41.671875 54.140625 41.15625 54.808594 40.21875 55.1875 C 40.101562 55.277344 39.589844 55.441406 38.6875 55.683594 C 35.691406 56.21875 33.847656 56.609375 33.160156 56.847656 C 31.65625 57.339844 30.570312 57.808594 29.898438 58.253906 C 29.015625 58.78125 28.121094 59.4375 27.222656 60.214844 C 23.890625 63.296875 21.957031 65.019531 21.421875 65.371094 C 20.265625 66.292969 19.089844 66.859375 17.894531 67.070312 C 16.722656 67.199219 16.054688 66.550781 15.882812 65.132812 C 15.757812 62.070312 16.386719 59.175781 17.761719 56.449219 L 16.242188 55.671875 C 14.636719 59.453125 13.820312 62.203125 13.800781 63.929688 C 13.835938 66.835938 14.496094 68.726562 15.777344 69.605469 C 17.046875 70.605469 18.851562 70.582031 21.191406 69.539062 C 21.726562 69.332031 22.5625 68.773438 23.699219 67.867188 C 24.078125 67.589844 25.550781 66.167969 28.117188 63.597656 C 28.953125 62.835938 29.835938 62.183594 30.757812 61.636719 C 31.875 61.035156 32.722656 60.652344 33.308594 60.492188 L 39.101562 58.953125 C 39.667969 58.808594 40.316406 58.445312 41.050781 57.863281 C 41.605469 57.480469 42.265625 56.328125 43.027344 54.402344 C 43.476562 53.375 43.683594 52.519531 43.652344 51.832031 C 43.648438 51.292969 43.523438 50.710938 43.269531 50.082031 C 42.945312 49.308594 42.335938 48.203125 41.445312 46.757812 C 41.265625 46.386719 41.230469 46.214844 41.335938 46.246094 C 41.628906 46.269531 42.289062 46.660156 43.3125 47.425781 L 53.039062 54.707031 C 54.746094 55.914062 56.257812 56.8125 57.570312 57.402344 C 58.753906 57.941406 59.914062 58.136719 61.050781 57.988281 C 62.929688 57.585938 64.222656 56.992188 64.933594 56.207031 C 65.953125 55.304688 66.386719 53.085938 66.226562 49.554688 L 64.195312 21.386719 " fill-opacity="1" fill-rule="nonzero"/><path fill="#ffffff" d="M 40.445312 27.703125 L 40.4375 28.074219 C 40.414062 29.816406 40.484375 31.078125 40.652344 31.851562 L 41.851562 36.320312 C 41.929688 36.738281 41.824219 37.085938 41.546875 37.355469 C 39.5625 37.78125 37.097656 39.003906 34.148438 41.023438 C 32.082031 42.40625 30.589844 43.484375 29.671875 44.257812 C 29.269531 44.554688 27.609375 46.019531 24.6875 48.660156 C 23.964844 49.273438 23.195312 49.882812 22.386719 50.484375 C 20.042969 52.175781 18.414062 53.003906 17.5 52.972656 C 16.359375 53.015625 15.964844 51.75 16.320312 49.171875 C 16.554688 47.75 16.890625 46.515625 17.324219 45.472656 C 17.539062 44.933594 17.785156 44.398438 18.058594 43.867188 C 19.707031 40.847656 20.441406 39.417969 20.265625 39.578125 C 20.441406 39.050781 20.300781 38.90625 19.84375 39.144531 C 18.101562 40.320312 16.660156 42.105469 15.527344 44.507812 C 14.167969 47.535156 13.453125 50.324219 13.390625 52.875 C 13.46875 54.664062 13.941406 55.796875 14.8125 56.265625 C 16.089844 57.042969 17.566406 57.152344 19.238281 56.597656 C 20.4375 56.183594 21.660156 55.496094 22.90625 54.535156 C 23.523438 54.058594 24.152344 53.535156 24.789062 52.960938 L 25.273438 52.519531 C 28.792969 49.164062 31.257812 46.925781 32.664062 45.808594 C 35.070312 43.859375 36.925781 42.554688 38.238281 41.894531 C 39.792969 41.039062 41.257812 40.617188 42.636719 40.628906 C 43.765625 40.570312 45.46875 41.003906 47.75 41.921875 C 48.097656 41.996094 48.355469 41.953125 48.519531 41.792969 C 49.015625 41.09375 49.121094 40.140625 48.835938 38.929688 C 45.738281 37.636719 43.835938 35.914062 43.136719 33.765625 C 42.644531 32.292969 42.371094 30.566406 42.324219 28.59375 C 43.9375 29.316406 44.464844 29.261719 43.910156 28.433594 L 41.308594 24.53125 C 41.015625 24.101562 40.808594 23.878906 40.6875 23.867188 C 40.265625 23.996094 39.773438 25.113281 39.210938 27.214844 C 39.199219 27.40625 39.238281 27.515625 39.332031 27.542969 C 39.351562 27.578125 39.71875 27.628906 40.445312 27.703125 " fill-opacity="1" fill-rule="nonzero"/><path fill="#ffffff" d="M 31.136719 49.738281 L 28.90625 52.867188 L 32.367188 55.097656 L 33.917969 52.601562 L 36.527344 53.820312 L 38.179688 50.539062 L 35.175781 48.757812 L 33.492188 51.054688 L 31.136719 49.738281 " fill-opacity="1" fill-rule="nonzero"/><path fill="#ffffff" d="M 39.183594 65.785156 L 38.003906 67.226562 L 36.820312 68.671875 C 37.859375 69.476562 38.898438 70.28125 39.9375 71.085938 C 40.691406 70.003906 41.445312 68.921875 42.203125 67.839844 L 39.183594 65.785156 " fill-opacity="1" fill-rule="nonzero"/><path fill="#ffffff" d="M 57.171875 82.84375 L 57.1875 82.835938 C 57.664062 82.667969 58.128906 82.554688 58.582031 82.503906 C 58.976562 82.476562 59.179688 82.550781 59.195312 82.730469 L 59.199219 82.78125 L 59.15625 83.125 L 59.074219 83.453125 C 59.003906 83.671875 58.914062 83.882812 58.804688 84.089844 C 58.691406 84.292969 58.570312 84.496094 58.433594 84.695312 L 57.59375 85.878906 L 57.398438 86.179688 C 57.203125 86.503906 57.089844 86.730469 57.0625 86.863281 C 56.949219 87.191406 56.914062 87.46875 56.964844 87.695312 C 56.984375 87.761719 57.023438 87.808594 57.078125 87.835938 L 57.171875 87.851562 L 57.507812 87.800781 L 57.804688 87.683594 C 57.992188 87.585938 58.167969 87.453125 58.324219 87.285156 L 58.554688 87.019531 C 58.699219 86.832031 58.835938 86.625 58.960938 86.402344 C 59.085938 86.179688 59.203125 85.953125 59.3125 85.71875 L 59.777344 84.726562 C 60.152344 84.011719 60.414062 83.484375 60.5625 83.136719 C 60.660156 82.917969 60.738281 82.695312 60.800781 82.472656 L 60.875 82.144531 L 60.910156 81.820312 L 60.902344 81.503906 C 60.832031 81.003906 60.660156 80.691406 60.398438 80.574219 C 60.261719 80.503906 60.101562 80.472656 59.925781 80.472656 L 59.667969 80.492188 C 59.488281 80.519531 59.304688 80.570312 59.117188 80.644531 C 58.515625 80.878906 58.003906 81.230469 57.582031 81.695312 C 57.449219 81.84375 57.347656 81.992188 57.269531 82.144531 L 57.175781 82.375 C 57.148438 82.46875 57.144531 82.625 57.171875 82.84375 " fill-opacity="1" fill-rule="nonzero"/><path fill="#ffffff" d="M 34.226562 73.265625 L 34.242188 73.269531 C 34.382812 73.300781 34.476562 73.316406 34.527344 73.320312 C 34.761719 73.3125 35.011719 73.320312 35.269531 73.347656 C 35.59375 73.394531 35.777344 73.429688 35.828125 73.457031 C 36.09375 73.5625 36.234375 73.636719 36.246094 73.679688 C 36.316406 73.742188 36.359375 73.820312 36.378906 73.90625 L 36.382812 74.046875 L 36.328125 74.273438 L 36.230469 74.488281 L 36.097656 74.695312 C 35.992188 74.832031 35.871094 74.953125 35.726562 75.070312 C 35.273438 75.421875 34.761719 75.636719 34.195312 75.710938 C 33.710938 75.75 33.351562 75.683594 33.113281 75.519531 L 32.792969 75.253906 L 32.5625 74.925781 L 32.40625 74.550781 L 32.320312 74.128906 L 32.292969 73.671875 L 32.320312 73.195312 L 32.386719 72.699219 C 32.445312 72.367188 32.519531 72.035156 32.613281 71.707031 C 32.636719 71.585938 32.804688 71.066406 33.117188 70.15625 L 33.164062 69.945312 L 33.308594 69.046875 L 33.355469 68.835938 C 33.425781 68.5625 33.558594 68.375 33.753906 68.273438 C 33.898438 68.234375 33.984375 68.21875 34.011719 68.230469 L 34.296875 68.292969 L 34.46875 68.472656 L 34.546875 68.75 L 34.546875 69.113281 C 34.523438 69.378906 34.472656 69.679688 34.390625 70.011719 C 34.183594 70.863281 34.066406 71.375 34.039062 71.550781 L 33.964844 72.042969 L 33.941406 72.503906 L 33.988281 72.90625 L 34 72.945312 C 34.046875 73.046875 34.121094 73.15625 34.226562 73.265625 " fill-opacity="1" fill-rule="nonzero"/><path fill="#ffffff" d="M 45.960938 67.535156 L 45.976562 67.539062 C 46.117188 67.570312 46.210938 67.585938 46.261719 67.585938 C 46.496094 67.578125 46.746094 67.589844 47.003906 67.613281 C 47.324219 67.660156 47.511719 67.699219 47.5625 67.726562 C 47.828125 67.828125 47.96875 67.902344 47.980469 67.945312 C 48.050781 68.011719 48.09375 68.085938 48.113281 68.171875 L 48.117188 68.3125 C 48.101562 68.417969 48.082031 68.519531 48.050781 68.625 C 48.046875 68.679688 47.984375 68.828125 47.867188 69.074219 C 47.761719 69.269531 47.632812 69.445312 47.480469 69.597656 C 47.152344 69.917969 46.785156 70.089844 46.382812 70.121094 C 45.203125 70.179688 44.457031 69.746094 44.140625 68.816406 L 44.054688 68.394531 L 44.027344 67.941406 L 44.050781 67.460938 L 44.121094 66.96875 C 44.179688 66.632812 44.253906 66.304688 44.347656 65.976562 C 44.371094 65.851562 44.539062 65.335938 44.851562 64.421875 L 44.898438 64.214844 L 45.039062 63.3125 L 45.089844 63.105469 C 45.160156 62.828125 45.289062 62.640625 45.488281 62.542969 C 45.628906 62.503906 45.714844 62.488281 45.746094 62.496094 L 46.03125 62.5625 L 46.203125 62.742188 L 46.28125 63.019531 L 46.28125 63.378906 C 46.257812 63.648438 46.203125 63.945312 46.125 64.277344 C 45.917969 65.128906 45.800781 65.640625 45.773438 65.816406 L 45.699219 66.3125 L 45.675781 66.769531 L 45.722656 67.175781 L 45.734375 67.210938 C 45.78125 67.316406 45.855469 67.421875 45.960938 67.535156 " fill-opacity="1" fill-rule="nonzero"/><path fill="#ffffff" d="M 19.738281 61.5625 L 19.757812 61.570312 L 20.007812 61.691406 C 20.3125 61.765625 20.597656 61.859375 20.859375 61.96875 C 21.195312 62.125 21.382812 62.226562 21.425781 62.273438 C 21.53125 62.351562 21.617188 62.433594 21.675781 62.527344 L 21.746094 62.664062 L 21.765625 62.8125 L 21.726562 62.96875 C 21.679688 63.132812 21.523438 63.367188 21.257812 63.679688 C 21.097656 63.847656 20.914062 63.992188 20.714844 64.105469 C 20.316406 64.335938 19.890625 64.410156 19.445312 64.332031 C 18.851562 64.230469 18.359375 63.96875 17.964844 63.554688 L 17.710938 63.195312 L 17.566406 62.792969 L 17.511719 62.363281 L 17.542969 61.90625 L 17.644531 61.433594 C 17.734375 61.109375 17.859375 60.785156 18.011719 60.460938 C 18.167969 60.136719 18.339844 59.816406 18.527344 59.507812 C 18.585938 59.386719 18.902344 58.90625 19.476562 58.070312 L 19.578125 57.878906 L 19.957031 57.039062 L 20.058594 56.84375 C 20.195312 56.582031 20.367188 56.410156 20.570312 56.332031 C 20.75 56.277344 20.933594 56.308594 21.121094 56.421875 L 21.269531 56.605469 L 21.320312 56.855469 L 21.285156 57.164062 C 21.234375 57.386719 21.144531 57.632812 21.019531 57.898438 L 20.824219 58.304688 L 20.160156 59.527344 C 20.019531 59.789062 19.90625 60.027344 19.820312 60.238281 C 19.722656 60.5 19.695312 60.9375 19.738281 61.5625 " fill-opacity="1" fill-rule="nonzero"/><path fill="#ffffff" d="M 23.558594 44.410156 L 23.574219 44.417969 C 23.710938 44.488281 23.820312 44.53125 23.902344 44.550781 C 23.933594 44.570312 24.210938 44.597656 24.734375 44.632812 C 24.8125 44.644531 24.890625 44.65625 24.964844 44.675781 C 25.144531 44.734375 25.25 44.78125 25.28125 44.8125 C 25.425781 44.914062 25.53125 45.058594 25.597656 45.246094 C 25.652344 45.460938 25.667969 45.609375 25.632812 45.695312 C 25.433594 46.210938 25.144531 46.601562 24.761719 46.859375 C 24.570312 47 24.367188 47.101562 24.148438 47.167969 C 23.980469 47.214844 23.804688 47.242188 23.621094 47.242188 C 23.214844 47.261719 22.738281 47.113281 22.191406 46.789062 C 21.96875 46.625 21.84375 46.519531 21.816406 46.476562 L 21.550781 46.117188 L 21.390625 45.714844 L 21.328125 45.28125 L 21.34375 44.816406 L 21.433594 44.335938 L 21.582031 43.84375 C 21.703125 43.507812 21.847656 43.179688 22.015625 42.847656 C 22.183594 42.519531 22.359375 42.203125 22.546875 41.902344 L 23.195312 40.882812 L 23.292969 40.683594 L 23.65625 39.816406 C 23.71875 39.675781 23.789062 39.550781 23.863281 39.4375 C 23.9375 39.324219 24.023438 39.234375 24.117188 39.167969 L 24.269531 39.089844 C 24.402344 39.050781 24.527344 39.054688 24.648438 39.109375 C 24.890625 39.265625 24.945312 39.660156 24.8125 40.289062 C 24.792969 40.417969 24.714844 40.652344 24.578125 40.988281 C 24.519531 41.128906 24.457031 41.269531 24.386719 41.40625 C 24.039062 42.089844 23.835938 42.503906 23.777344 42.644531 C 23.648438 42.9375 23.546875 43.210938 23.46875 43.460938 C 23.398438 43.667969 23.375 43.871094 23.394531 44.066406 C 23.414062 44.203125 23.46875 44.320312 23.558594 44.410156 " fill-opacity="1" fill-rule="nonzero"/><path fill="#ffffff" d="M 14.410156 35.027344 L 14.425781 35.035156 C 14.554688 35.105469 14.65625 35.152344 14.734375 35.175781 C 14.769531 35.195312 15.035156 35.230469 15.535156 35.28125 C 15.609375 35.292969 15.683594 35.308594 15.753906 35.332031 C 15.925781 35.394531 16.023438 35.441406 16.050781 35.472656 C 16.1875 35.574219 16.285156 35.71875 16.339844 35.898438 C 16.390625 36.105469 16.394531 36.25 16.363281 36.332031 C 16.246094 36.675781 16 37.007812 15.621094 37.320312 C 15.242188 37.613281 14.851562 37.753906 14.449219 37.75 C 14.230469 37.746094 14.007812 37.714844 13.792969 37.648438 C 13.683594 37.613281 13.578125 37.574219 13.472656 37.527344 C 13.222656 37.398438 13.074219 37.316406 13.035156 37.277344 C 12.820312 37.105469 12.699219 36.996094 12.671875 36.953125 L 12.429688 36.601562 L 12.289062 36.210938 L 12.242188 35.789062 L 12.273438 35.347656 L 12.375 34.886719 L 12.535156 34.417969 C 12.660156 34.101562 12.808594 33.789062 12.980469 33.480469 C 13.152344 33.167969 13.335938 32.871094 13.523438 32.585938 L 14.179688 31.632812 L 14.277344 31.445312 L 14.652344 30.632812 C 14.71875 30.503906 14.785156 30.382812 14.859375 30.277344 C 15.125 29.941406 15.382812 29.84375 15.632812 29.976562 C 15.859375 30.132812 15.898438 30.511719 15.753906 31.117188 C 15.730469 31.238281 15.644531 31.457031 15.503906 31.777344 C 15.441406 31.914062 15.375 32.042969 15.308594 32.171875 C 14.949219 32.816406 14.742188 33.207031 14.679688 33.339844 C 14.546875 33.617188 14.441406 33.875 14.355469 34.117188 C 14.28125 34.3125 14.253906 34.503906 14.269531 34.695312 C 14.28125 34.828125 14.328125 34.9375 14.410156 35.027344 " fill-opacity="1" fill-rule="nonzero"/><path fill="#ffffff" d="M 21.679688 23.78125 L 21.695312 23.789062 C 21.816406 23.867188 21.914062 23.914062 21.988281 23.941406 C 22.019531 23.960938 22.277344 24.007812 22.761719 24.078125 L 22.972656 24.136719 C 23.136719 24.207031 23.234375 24.253906 23.257812 24.289062 C 23.382812 24.394531 23.472656 24.535156 23.519531 24.714844 C 23.558594 24.917969 23.558594 25.058594 23.519531 25.136719 C 23.296875 25.601562 22.996094 25.945312 22.617188 26.160156 C 22.429688 26.273438 22.234375 26.351562 22.027344 26.398438 C 21.851562 26.433594 21.683594 26.441406 21.515625 26.425781 C 21.054688 26.375 20.636719 26.207031 20.257812 25.921875 C 20.046875 25.738281 19.925781 25.625 19.902344 25.578125 L 19.683594 25.222656 L 19.5625 24.839844 L 19.535156 24.425781 L 19.585938 23.996094 L 19.707031 23.554688 L 19.882812 23.105469 C 20.019531 22.804688 20.175781 22.503906 20.359375 22.210938 C 20.539062 21.917969 20.730469 21.636719 20.925781 21.367188 C 21.070312 21.167969 21.316406 20.847656 21.660156 20.410156 L 22.621094 19.085938 C 22.757812 18.886719 22.914062 18.832031 23.097656 18.921875 C 23.308594 19.085938 23.332031 19.457031 23.160156 20.035156 C 23.132812 20.152344 23.042969 20.363281 22.890625 20.667969 C 22.824219 20.796875 22.753906 20.921875 22.679688 21.042969 L 22.015625 22.152344 C 21.875 22.417969 21.761719 22.664062 21.667969 22.890625 C 21.589844 23.078125 21.550781 23.265625 21.554688 23.449219 C 21.5625 23.582031 21.605469 23.691406 21.679688 23.78125 " fill-opacity="1" fill-rule="nonzero"/><path fill="#ffffff" d="M 48 25.96875 L 48.019531 25.980469 C 48.152344 26.046875 48.261719 26.09375 48.34375 26.113281 C 48.378906 26.132812 48.65625 26.160156 49.175781 26.195312 C 49.257812 26.203125 49.332031 26.21875 49.40625 26.238281 C 49.589844 26.296875 49.695312 26.34375 49.722656 26.375 C 49.867188 26.476562 49.972656 26.621094 50.039062 26.808594 C 50.097656 27.023438 50.109375 27.171875 50.078125 27.257812 C 49.878906 27.773438 49.585938 28.160156 49.203125 28.421875 C 49.011719 28.558594 48.808594 28.664062 48.59375 28.726562 C 48.421875 28.777344 48.246094 28.800781 48.066406 28.800781 C 47.65625 28.824219 47.179688 28.671875 46.632812 28.347656 C 46.414062 28.183594 46.289062 28.082031 46.257812 28.035156 L 45.996094 27.679688 L 45.835938 27.277344 L 45.769531 26.84375 L 45.789062 26.378906 L 45.878906 25.898438 L 46.027344 25.402344 C 46.144531 25.070312 46.289062 24.738281 46.457031 24.410156 C 46.625 24.082031 46.804688 23.765625 46.992188 23.460938 C 47.125 23.238281 47.359375 22.878906 47.6875 22.378906 C 48.164062 21.582031 48.472656 21.082031 48.605469 20.878906 C 48.746094 20.652344 48.910156 20.582031 49.089844 20.671875 C 49.332031 20.824219 49.386719 21.21875 49.253906 21.851562 C 49.234375 21.980469 49.15625 22.210938 49.019531 22.550781 C 48.960938 22.691406 48.898438 22.832031 48.832031 22.96875 C 48.484375 23.652344 48.277344 24.0625 48.21875 24.203125 C 48.09375 24.5 47.988281 24.769531 47.910156 25.023438 C 47.839844 25.230469 47.816406 25.429688 47.839844 25.628906 C 47.859375 25.765625 47.910156 25.878906 48 25.96875 " fill-opacity="1" fill-rule="nonzero"/><path fill="#ffffff" d="M 59.242188 29.425781 L 59.257812 29.433594 C 59.394531 29.503906 59.5 29.550781 59.582031 29.570312 C 59.617188 29.589844 59.894531 29.617188 60.417969 29.652344 C 60.496094 29.660156 60.574219 29.675781 60.648438 29.695312 C 60.828125 29.753906 60.933594 29.796875 60.960938 29.832031 C 61.109375 29.933594 61.214844 30.078125 61.277344 30.265625 C 61.335938 30.480469 61.347656 30.628906 61.316406 30.714844 C 61.117188 31.230469 60.828125 31.617188 60.445312 31.878906 C 60.253906 32.015625 60.050781 32.117188 59.832031 32.183594 C 59.664062 32.234375 59.488281 32.257812 59.304688 32.257812 C 58.898438 32.28125 58.421875 32.128906 57.875 31.804688 C 57.652344 31.640625 57.527344 31.535156 57.5 31.492188 L 57.234375 31.132812 L 57.074219 30.734375 L 57.011719 30.296875 L 57.027344 29.835938 L 57.117188 29.355469 L 57.265625 28.859375 C 57.386719 28.527344 57.527344 28.195312 57.699219 27.867188 C 57.867188 27.539062 58.042969 27.222656 58.230469 26.917969 C 58.367188 26.695312 58.597656 26.335938 58.929688 25.835938 C 59.40625 25.039062 59.710938 24.539062 59.847656 24.335938 C 59.988281 24.109375 60.148438 24.039062 60.332031 24.125 C 60.574219 24.28125 60.628906 24.675781 60.496094 25.308594 C 60.476562 25.4375 60.398438 25.667969 60.261719 26.007812 C 60.203125 26.148438 60.136719 26.289062 60.070312 26.425781 C 59.722656 27.109375 59.519531 27.519531 59.460938 27.660156 C 59.332031 27.957031 59.230469 28.226562 59.148438 28.480469 C 59.082031 28.6875 59.058594 28.886719 59.078125 29.085938 C 59.097656 29.222656 59.152344 29.335938 59.242188 29.425781 " fill-opacity="1" fill-rule="nonzero"/><path fill="#ffffff" d="M 60.972656 47.511719 L 60.992188 47.523438 C 61.125 47.589844 61.234375 47.636719 61.316406 47.65625 C 61.351562 47.675781 61.628906 47.703125 62.148438 47.738281 C 62.230469 47.746094 62.304688 47.761719 62.378906 47.78125 C 62.5625 47.839844 62.667969 47.886719 62.695312 47.917969 C 62.839844 48.019531 62.945312 48.164062 63.011719 48.351562 C 63.070312 48.566406 63.082031 48.714844 63.050781 48.800781 C 62.851562 49.316406 62.558594 49.703125 62.175781 49.964844 C 61.984375 50.101562 61.78125 50.207031 61.566406 50.269531 C 61.394531 50.320312 61.21875 50.34375 61.039062 50.34375 C 60.628906 50.367188 60.152344 50.214844 59.605469 49.890625 C 59.386719 49.726562 59.261719 49.625 59.230469 49.578125 L 58.964844 49.222656 L 58.808594 48.820312 L 58.742188 48.386719 L 58.761719 47.921875 L 58.851562 47.441406 L 59 46.945312 C 59.117188 46.613281 59.261719 46.28125 59.429688 45.953125 C 59.597656 45.625 59.777344 45.308594 59.964844 45.003906 L 60.609375 43.984375 L 60.707031 43.789062 L 61.074219 42.921875 C 61.136719 42.78125 61.203125 42.652344 61.28125 42.539062 C 61.355469 42.425781 61.4375 42.335938 61.53125 42.269531 L 61.683594 42.195312 C 61.816406 42.152344 61.941406 42.160156 62.0625 42.214844 C 62.304688 42.367188 62.359375 42.761719 62.226562 43.394531 C 62.207031 43.523438 62.128906 43.753906 61.992188 44.09375 C 61.976562 44.167969 61.742188 44.648438 61.289062 45.539062 C 61.128906 45.886719 61.039062 46.097656 61.019531 46.171875 C 60.929688 46.4375 60.914062 46.886719 60.972656 47.511719 " fill-opacity="1" fill-rule="nonzero"/><path fill="#ffffff" d="M 50.988281 44.410156 L 51.003906 44.417969 C 51.140625 44.488281 51.25 44.535156 51.332031 44.554688 C 51.367188 44.574219 51.644531 44.601562 52.164062 44.636719 C 52.242188 44.644531 52.320312 44.660156 52.394531 44.679688 C 52.578125 44.738281 52.683594 44.78125 52.710938 44.8125 C 52.855469 44.917969 52.960938 45.0625 53.027344 45.25 C 53.085938 45.460938 53.097656 45.613281 53.0625 45.699219 C 52.867188 46.214844 52.574219 46.601562 52.191406 46.863281 C 52 47 51.796875 47.101562 51.582031 47.167969 C 51.410156 47.21875 51.234375 47.242188 51.050781 47.242188 C 50.644531 47.265625 50.167969 47.113281 49.621094 46.789062 C 49.402344 46.625 49.277344 46.519531 49.246094 46.476562 L 48.980469 46.117188 L 48.824219 45.71875 L 48.757812 45.28125 L 48.777344 44.820312 L 48.863281 44.339844 L 49.015625 43.84375 C 49.132812 43.511719 49.277344 43.179688 49.445312 42.851562 C 49.613281 42.523438 49.792969 42.207031 49.976562 41.902344 L 50.625 40.882812 L 50.722656 40.6875 L 51.085938 39.820312 C 51.152344 39.679688 51.21875 39.550781 51.292969 39.4375 C 51.371094 39.324219 51.453125 39.234375 51.546875 39.167969 L 51.699219 39.09375 C 51.832031 39.050781 51.957031 39.058594 52.078125 39.109375 C 52.320312 39.265625 52.375 39.660156 52.242188 40.292969 C 52.222656 40.421875 52.144531 40.652344 52.007812 40.992188 C 51.949219 41.132812 51.886719 41.269531 51.820312 41.410156 C 51.46875 42.09375 51.265625 42.503906 51.207031 42.644531 C 51.078125 42.9375 50.976562 43.210938 50.898438 43.464844 C 50.828125 43.671875 50.804688 43.871094 50.828125 44.070312 C 50.84375 44.207031 50.898438 44.320312 50.988281 44.410156 " fill-opacity="1" fill-rule="nonzero"/><path fill="#ffffff" d="M 67.148438 29.878906 L 67.164062 29.890625 C 67.300781 29.957031 67.410156 30.003906 67.492188 30.023438 C 67.523438 30.042969 67.804688 30.070312 68.324219 30.105469 C 68.402344 30.113281 68.480469 30.128906 68.554688 30.148438 C 68.738281 30.207031 68.84375 30.253906 68.871094 30.285156 C 69.015625 30.386719 69.121094 30.53125 69.1875 30.71875 C 69.246094 30.933594 69.257812 31.082031 69.222656 31.167969 C 69.027344 31.683594 68.734375 32.070312 68.351562 32.332031 C 68.160156 32.46875 67.957031 32.574219 67.742188 32.636719 C 67.570312 32.6875 67.394531 32.710938 67.210938 32.710938 C 66.804688 32.734375 66.328125 32.582031 65.78125 32.257812 C 65.5625 32.09375 65.433594 31.992188 65.40625 31.945312 L 65.140625 31.589844 L 64.984375 31.1875 L 64.917969 30.753906 L 64.9375 30.289062 L 65.023438 29.808594 L 65.171875 29.3125 C 65.292969 28.980469 65.4375 28.648438 65.605469 28.320312 C 65.773438 27.992188 65.953125 27.675781 66.136719 27.371094 C 66.273438 27.148438 66.507812 26.789062 66.835938 26.289062 C 67.3125 25.492188 67.617188 24.992188 67.753906 24.789062 C 67.894531 24.5625 68.054688 24.492188 68.238281 24.582031 C 68.480469 24.734375 68.535156 25.128906 68.402344 25.761719 C 68.382812 25.890625 68.304688 26.121094 68.167969 26.460938 C 68.109375 26.601562 68.046875 26.742188 67.980469 26.878906 C 67.628906 27.5625 67.425781 27.972656 67.367188 28.113281 C 67.238281 28.410156 67.136719 28.679688 67.058594 28.933594 C 66.988281 29.140625 66.964844 29.339844 66.988281 29.539062 C 67.003906 29.675781 67.058594 29.789062 67.148438 29.878906 " fill-opacity="1" fill-rule="nonzero"/><path fill="#ffffff" d="M 29.703125 32.183594 C 30.789062 32.1875 31.539062 32.351562 31.964844 32.679688 C 32.222656 32.863281 32.46875 33.109375 32.710938 33.414062 L 34.074219 35.285156 C 34.269531 35.539062 34.464844 35.757812 34.652344 35.9375 C 34.957031 36.246094 35.277344 36.355469 35.613281 36.261719 C 35.789062 36.207031 36.003906 36.082031 36.257812 35.882812 C 36.34375 34.988281 36.386719 34.257812 36.390625 33.695312 C 36.402344 33.238281 36.328125 32.414062 36.171875 31.222656 C 36.148438 31 36.167969 30.789062 36.226562 30.597656 C 36.359375 30.363281 36.574219 30.300781 36.878906 30.398438 C 37.007812 30.433594 37.160156 30.511719 37.339844 30.632812 L 38.105469 31.269531 C 38.214844 31.332031 38.324219 31.339844 38.433594 31.292969 C 38.539062 31.25 38.671875 31.148438 38.832031 30.984375 C 38.9375 30.351562 38.992188 29.871094 38.996094 29.542969 C 39.023438 28.726562 38.765625 28.078125 38.210938 27.597656 C 37.664062 27.132812 37.046875 26.984375 36.359375 27.152344 C 36.019531 27.246094 35.734375 27.414062 35.503906 27.65625 C 35.328125 27.828125 35.132812 28.128906 34.921875 28.554688 L 34.71875 28.996094 C 34.742188 29.828125 34.726562 30.382812 34.667969 30.660156 C 34.613281 30.96875 34.515625 31.160156 34.382812 31.234375 C 34.292969 31.273438 34.199219 31.25 34.101562 31.171875 C 33.527344 30.550781 33.15625 30.203125 32.992188 30.132812 C 32.679688 29.9375 32.328125 29.78125 31.933594 29.671875 C 30.828125 29.355469 29.960938 29.40625 29.339844 29.828125 C 28.800781 30.320312 28.558594 30.8125 28.613281 31.300781 C 28.648438 31.515625 28.757812 31.6875 28.941406 31.8125 C 29.085938 31.925781 29.339844 32.046875 29.703125 32.183594 " fill-opacity="1" fill-rule="nonzero"/><g clip-path="url(#66dbfa9de2)"><path fill="#ffffff" d="M 42.523438 87.019531 L 42.542969 87.023438 C 42.652344 87.03125 42.753906 87.035156 42.839844 87.03125 C 43.105469 86.984375 43.367188 86.957031 43.628906 86.945312 C 43.839844 86.9375 44.035156 86.945312 44.207031 86.96875 C 44.589844 87.007812 44.824219 87.15625 44.910156 87.410156 L 44.925781 87.511719 L 44.898438 87.785156 L 44.816406 88.050781 L 44.683594 88.308594 C 44.582031 88.480469 44.449219 88.640625 44.296875 88.792969 L 44.050781 89.007812 C 43.878906 89.148438 43.691406 89.265625 43.496094 89.371094 C 43.296875 89.472656 43.09375 89.550781 42.890625 89.609375 C 42.414062 89.734375 42.015625 89.722656 41.691406 89.578125 L 41.3125 89.347656 L 41.015625 89.039062 L 40.792969 88.660156 L 40.636719 88.226562 L 40.539062 87.75 L 40.488281 87.238281 L 40.484375 86.707031 C 40.496094 86.34375 40.523438 85.980469 40.574219 85.621094 C 40.578125 85.484375 40.675781 84.914062 40.867188 83.898438 L 40.882812 83.667969 L 40.894531 82.695312 L 40.914062 82.464844 C 40.933594 82.320312 40.96875 82.1875 41.019531 82.074219 L 41.117188 81.921875 L 41.25 81.808594 C 41.355469 81.746094 41.480469 81.714844 41.636719 81.710938 L 41.902344 81.78125 L 42.082031 81.976562 L 42.183594 82.277344 L 42.222656 82.671875 L 42.21875 83.128906 C 42.21875 83.277344 42.175781 83.808594 42.089844 84.734375 C 42.058594 85.105469 42.046875 85.460938 42.058594 85.796875 L 42.105469 86.269531 L 42.214844 86.679688 C 42.25 86.765625 42.351562 86.882812 42.523438 87.019531 " fill-opacity="1" fill-rule="nonzero"/></g><g clip-path="url(#51b9cec994)"><path fill="#ffffff" d="M 10.660156 49.792969 L 10.644531 49.78125 C 10.503906 49.6875 10.390625 49.625 10.300781 49.59375 C 10.265625 49.566406 9.964844 49.503906 9.394531 49.402344 L 9.144531 49.324219 C 8.953125 49.238281 8.84375 49.175781 8.816406 49.136719 C 8.667969 49.007812 8.570312 48.832031 8.519531 48.621094 C 8.484375 48.378906 8.488281 48.210938 8.535156 48.121094 C 8.699219 47.734375 9.011719 47.378906 9.472656 47.046875 C 9.925781 46.746094 10.398438 46.621094 10.894531 46.664062 C 11.453125 46.726562 11.957031 46.941406 12.410156 47.300781 C 12.664062 47.53125 12.804688 47.675781 12.832031 47.734375 L 13.078125 48.160156 L 13.207031 48.621094 L 13.222656 49.105469 L 13.148438 49.613281 L 12.988281 50.132812 L 12.765625 50.660156 C 12.59375 51.011719 12.394531 51.359375 12.167969 51.699219 C 11.941406 52.039062 11.707031 52.367188 11.464844 52.675781 L 10.632812 53.710938 C 10.546875 53.839844 10.460938 53.976562 10.378906 54.125 L 10.011719 54.796875 C 9.929688 54.9375 9.839844 55.070312 9.75 55.1875 C 9.445312 55.558594 9.132812 55.660156 8.808594 55.492188 C 8.5625 55.289062 8.550781 54.851562 8.773438 54.171875 C 8.8125 54.03125 8.925781 53.785156 9.117188 53.429688 C 9.203125 53.28125 9.289062 53.136719 9.378906 52.996094 C 9.847656 52.285156 10.121094 51.855469 10.203125 51.707031 C 10.378906 51.402344 10.527344 51.113281 10.644531 50.847656 C 10.746094 50.628906 10.796875 50.410156 10.796875 50.1875 C 10.792969 50.035156 10.75 49.902344 10.660156 49.792969 " fill-opacity="1" fill-rule="nonzero"/></g><path fill="#ffffff" d="M 30.886719 17.105469 L 30.5625 17.230469 C 28.320312 18.066406 27.15625 18.726562 27.070312 19.210938 C 26.785156 20.421875 26.71875 21.308594 26.871094 21.878906 C 27.027344 22.28125 27.414062 22.398438 28.035156 22.230469 C 28.292969 22.121094 28.441406 21.980469 28.488281 21.800781 C 28.523438 21.78125 28.542969 21.511719 28.539062 21 C 28.605469 20.699219 28.675781 20.511719 28.746094 20.433594 C 29.128906 19.933594 29.609375 19.546875 30.1875 19.273438 C 30.589844 19.023438 31.707031 18.566406 33.539062 17.90625 C 34.226562 17.644531 36.933594 16.777344 41.664062 15.296875 C 43.152344 14.800781 44.113281 14.460938 44.546875 14.273438 C 46.519531 13.445312 47.675781 12.722656 48.007812 12.101562 C 48.230469 11.683594 47.742188 11.652344 46.542969 12.015625 C 46.027344 12.164062 45.171875 12.453125 43.976562 12.878906 L 30.886719 17.105469 " fill-opacity="1" fill-rule="nonzero"/><path fill="#ffffff" d="M 29.527344 66.539062 L 29.382812 66.621094 C 28.859375 66.914062 28.460938 67.222656 28.183594 67.546875 C 27.746094 68.113281 27.53125 68.558594 27.535156 68.886719 C 27.523438 69.15625 27.683594 69.265625 28.019531 69.222656 C 28.363281 69.125 28.625 69.027344 28.796875 68.929688 L 29.550781 68.519531 C 30.105469 68.191406 30.683594 67.832031 31.28125 67.433594 C 31.332031 67.410156 32.410156 66.671875 34.511719 65.222656 C 34.832031 65.007812 35.210938 64.769531 35.644531 64.515625 C 35.847656 64.378906 35.96875 64.292969 36.007812 64.257812 C 36.542969 63.8125 36.839844 63.300781 36.898438 62.722656 C 36.871094 62.285156 36.429688 62.292969 35.578125 62.753906 C 34.847656 63.136719 33.617188 63.925781 31.890625 65.117188 L 29.527344 66.539062 " fill-opacity="1" fill-rule="nonzero"/><path fill="#ffffff" d="M 46.558594 52.925781 L 46.566406 52.925781 C 46.753906 52.972656 46.808594 53.015625 46.878906 53.195312 C 46.949219 53.375 46.964844 53.398438 46.960938 53.636719 C 46.957031 53.695312 46.933594 54.007812 46.921875 54.082031 C 46.910156 54.15625 46.9375 53.957031 46.921875 54.089844 C 46.902344 54.21875 46.878906 54.324219 46.816406 54.421875 C 46.730469 54.554688 46.601562 54.632812 46.433594 54.628906 C 46.308594 54.625 46.21875 54.585938 46.164062 54.554688 C 46.113281 54.527344 46.066406 54.484375 46.023438 54.410156 C 45.992188 54.363281 45.960938 54.277344 45.941406 54.152344 C 45.917969 53.988281 45.917969 53.851562 45.929688 53.746094 C 45.953125 53.480469 46.019531 53.28125 46.125 53.148438 C 46.242188 53 46.386719 52.925781 46.558594 52.925781 M 46.816406 51.742188 L 46.734375 51.746094 C 45.832031 51.964844 45.207031 52.445312 44.886719 53.207031 C 44.78125 53.460938 44.792969 53.648438 44.8125 53.882812 C 44.832031 54.117188 45.058594 54.347656 45.308594 55.011719 C 45.347656 55.125 45.410156 55.253906 45.417969 55.339844 C 45.441406 55.511719 45.238281 55.636719 44.796875 56.171875 C 44.511719 56.515625 44.152344 56.859375 44.152344 56.859375 C 42.691406 58.226562 41.773438 58.988281 41.246094 59.441406 C 40.332031 60.234375 39.722656 60.660156 39.40625 60.695312 C 38.960938 61.273438 38.660156 61.761719 38.507812 62.160156 C 38.375 62.511719 38.304688 62.722656 38.3125 62.785156 C 38.328125 62.964844 38.390625 63.042969 38.488281 63.027344 C 39.039062 62.945312 40.441406 61.898438 42.730469 59.914062 C 45.070312 57.886719 46.4375 56.539062 46.796875 55.84375 C 47.480469 56.046875 47.875 56.011719 48.039062 55.785156 C 48.191406 55.574219 48.300781 55.285156 48.257812 54.875 C 48.242188 54.738281 48.226562 54.640625 48.136719 54.546875 C 47.992188 54.394531 47.808594 54.328125 47.65625 54.328125 C 47.863281 53.539062 47.734375 52.910156 47.554688 52.351562 C 47.441406 51.992188 47.214844 51.78125 46.816406 51.742188 Z M 46.816406 51.742188 " fill-opacity="1" fill-rule="nonzero"/><path fill="#ffffff" d="M 46.558594 52.925781 L 46.566406 52.925781 C 46.753906 52.972656 46.808594 53.015625 46.878906 53.195312 C 46.949219 53.375 46.964844 53.398438 46.960938 53.636719 C 46.957031 53.695312 46.933594 54.007812 46.921875 54.082031 C 46.910156 54.15625 46.9375 53.957031 46.921875 54.089844 C 46.902344 54.21875 46.878906 54.324219 46.816406 54.421875 C 46.730469 54.554688 46.601562 54.632812 46.433594 54.628906 C 46.308594 54.625 46.21875 54.585938 46.164062 54.554688 C 46.113281 54.527344 46.066406 54.484375 46.023438 54.410156 C 45.992188 54.363281 45.960938 54.277344 45.941406 54.152344 C 45.917969 53.988281 45.917969 53.851562 45.929688 53.746094 C 45.953125 53.480469 46.019531 53.28125 46.125 53.148438 C 46.242188 53 46.386719 52.925781 46.558594 52.925781 M 46.816406 51.742188 L 46.734375 51.746094 C 45.832031 51.964844 45.207031 52.445312 44.886719 53.207031 C 44.78125 53.460938 44.792969 53.648438 44.8125 53.882812 C 44.832031 54.117188 45.058594 54.347656 45.308594 55.011719 C 45.347656 55.125 45.410156 55.253906 45.417969 55.339844 C 45.441406 55.511719 45.238281 55.636719 44.796875 56.171875 C 44.511719 56.515625 44.152344 56.859375 44.152344 56.859375 C 42.691406 58.226562 41.773438 58.988281 41.246094 59.441406 C 40.332031 60.234375 39.722656 60.660156 39.40625 60.695312 C 38.960938 61.273438 38.660156 61.761719 38.507812 62.160156 C 38.375 62.511719 38.304688 62.722656 38.3125 62.785156 C 38.328125 62.964844 38.390625 63.042969 38.488281 63.027344 C 39.039062 62.945312 40.441406 61.898438 42.730469 59.914062 C 45.070312 57.886719 46.4375 56.539062 46.796875 55.84375 C 47.480469 56.046875 47.875 56.011719 48.039062 55.785156 C 48.191406 55.574219 48.300781 55.285156 48.257812 54.875 C 48.242188 54.738281 48.226562 54.640625 48.136719 54.546875 C 47.992188 54.394531 47.808594 54.328125 47.65625 54.328125 C 47.863281 53.539062 47.734375 52.910156 47.554688 52.351562 C 47.441406 51.992188 47.214844 51.78125 46.816406 51.742188 Z M 46.816406 51.742188 " fill-opacity="1" fill-rule="nonzero"/><path fill="#ffffff" d="M 74.472656 36.695312 L 74.480469 36.695312 C 74.667969 36.742188 74.71875 36.789062 74.789062 36.96875 C 74.863281 37.144531 74.878906 37.171875 74.871094 37.40625 C 74.871094 37.46875 74.847656 37.78125 74.835938 37.851562 C 74.824219 37.925781 74.851562 37.730469 74.832031 37.859375 C 74.816406 37.992188 74.792969 38.09375 74.726562 38.195312 C 74.644531 38.328125 74.515625 38.40625 74.347656 38.402344 C 74.21875 38.398438 74.132812 38.355469 74.078125 38.328125 C 74.027344 38.300781 73.980469 38.253906 73.933594 38.183594 C 73.90625 38.136719 73.875 38.050781 73.855469 37.921875 C 73.832031 37.757812 73.832031 37.625 73.84375 37.519531 C 73.867188 37.253906 73.929688 37.050781 74.035156 36.917969 C 74.15625 36.769531 74.300781 36.695312 74.472656 36.695312 M 74.730469 35.515625 L 74.648438 35.519531 C 73.742188 35.734375 73.117188 36.214844 72.800781 36.976562 C 72.695312 37.234375 72.703125 37.417969 72.722656 37.652344 C 72.742188 37.886719 72.972656 38.117188 73.21875 38.78125 C 73.261719 38.898438 73.320312 39.023438 73.332031 39.113281 C 73.355469 39.285156 73.152344 39.410156 72.710938 39.945312 C 72.425781 40.285156 72.066406 40.628906 72.066406 40.628906 C 70.601562 41.996094 69.6875 42.757812 69.160156 43.214844 C 68.242188 44.007812 67.632812 44.429688 67.320312 44.46875 C 66.875 45.046875 66.574219 45.53125 66.421875 45.929688 C 66.289062 46.28125 66.21875 46.492188 66.222656 46.558594 C 66.238281 46.738281 66.304688 46.8125 66.398438 46.800781 C 66.949219 46.71875 68.355469 45.671875 70.644531 43.6875 C 72.984375 41.65625 74.347656 40.3125 74.707031 39.613281 C 75.394531 39.816406 75.789062 39.785156 75.953125 39.554688 C 76.105469 39.34375 76.210938 39.054688 76.167969 38.648438 C 76.15625 38.511719 76.136719 38.410156 76.050781 38.316406 C 75.90625 38.167969 75.722656 38.097656 75.566406 38.097656 C 75.777344 37.308594 75.644531 36.679688 75.46875 36.125 C 75.355469 35.761719 75.128906 35.554688 74.730469 35.515625 Z M 74.730469 35.515625 " fill-opacity="1" fill-rule="nonzero"/><path fill="#ffffff" d="M 19.484375 34.121094 L 19.492188 34.121094 C 19.699219 34.171875 19.757812 34.222656 19.839844 34.421875 C 19.917969 34.621094 19.933594 34.648438 19.929688 34.910156 C 19.925781 34.976562 19.902344 35.324219 19.886719 35.40625 C 19.875 35.488281 19.902344 35.269531 19.882812 35.414062 C 19.863281 35.558594 19.839844 35.675781 19.769531 35.785156 C 19.671875 35.933594 19.53125 36.019531 19.34375 36.015625 C 19.203125 36.011719 19.105469 35.96875 19.042969 35.933594 C 18.988281 35.902344 18.933594 35.855469 18.886719 35.773438 C 18.851562 35.722656 18.816406 35.625 18.796875 35.484375 C 18.769531 35.300781 18.769531 35.152344 18.78125 35.035156 C 18.8125 34.738281 18.882812 34.515625 19 34.367188 C 19.128906 34.203125 19.292969 34.121094 19.484375 34.121094 M 19.773438 32.804688 L 19.679688 32.808594 C 18.671875 33.046875 17.976562 33.585938 17.625 34.429688 C 17.503906 34.714844 17.515625 34.921875 17.539062 35.183594 C 17.558594 35.445312 17.816406 35.699219 18.089844 36.441406 C 18.136719 36.566406 18.203125 36.710938 18.214844 36.808594 C 18.238281 36.996094 18.011719 37.136719 17.519531 37.734375 C 17.203125 38.113281 16.804688 38.496094 16.804688 38.496094 C 15.175781 40.015625 14.15625 40.863281 13.570312 41.371094 C 12.546875 42.253906 11.871094 42.726562 11.519531 42.765625 C 11.023438 43.410156 10.6875 43.949219 10.519531 44.394531 C 10.371094 44.785156 10.292969 45.019531 10.300781 45.09375 C 10.316406 45.292969 10.390625 45.378906 10.496094 45.363281 C 11.109375 45.269531 12.671875 44.105469 15.21875 41.898438 C 17.824219 39.640625 19.34375 38.140625 19.746094 37.367188 C 20.507812 37.59375 20.949219 37.558594 21.128906 37.300781 C 21.300781 37.066406 21.421875 36.746094 21.371094 36.289062 C 21.355469 36.136719 21.335938 36.027344 21.238281 35.925781 C 21.078125 35.757812 20.875 35.679688 20.703125 35.679688 C 20.9375 34.804688 20.789062 34.101562 20.59375 33.480469 C 20.464844 33.082031 20.214844 32.847656 19.773438 32.804688 Z M 19.773438 32.804688 " fill-opacity="1" fill-rule="nonzero"/><g clip-path="url(#90658b8501)"><path fill="#ffffff" d="M 52.726562 12.851562 L 52.730469 12.808594 C 52.785156 12.453125 52.851562 12.183594 52.925781 12 C 52.9375 11.953125 53.011719 11.828125 53.140625 11.625 C 53.253906 11.46875 53.378906 11.324219 53.527344 11.191406 C 53.726562 10.988281 54.144531 10.730469 54.78125 10.417969 C 55.125 10.234375 55.476562 10.101562 55.835938 10.027344 C 56.101562 9.976562 56.371094 9.980469 56.636719 10.042969 C 56.992188 10.140625 57.203125 10.214844 57.273438 10.261719 C 57.414062 10.324219 57.542969 10.402344 57.671875 10.484375 C 58.214844 10.847656 58.476562 11.3125 58.457031 11.875 L 58.378906 12.25 L 58.203125 12.605469 L 57.949219 12.941406 L 57.625 13.25 L 57.242188 13.53125 L 56.816406 13.78125 L 56.355469 13.992188 L 55.875 14.164062 L 55.382812 14.292969 L 54.898438 14.371094 C 54.5625 14.40625 54.273438 14.40625 54.03125 14.375 C 53.835938 14.351562 53.699219 14.320312 53.617188 14.28125 C 53.558594 14.238281 53.515625 14.171875 53.496094 14.082031 C 53.472656 13.988281 53.476562 13.902344 53.496094 13.820312 C 53.535156 13.730469 53.566406 13.6875 53.585938 13.683594 C 53.613281 13.660156 53.707031 13.621094 53.867188 13.558594 C 54.300781 13.449219 54.535156 13.382812 54.5625 13.359375 C 54.707031 13.296875 54.800781 13.234375 54.84375 13.171875 C 54.9375 13.074219 54.988281 12.90625 54.996094 12.664062 C 54.980469 12.457031 54.90625 12.324219 54.78125 12.261719 C 54.632812 12.191406 54.4375 12.1875 54.195312 12.253906 C 54.039062 12.296875 53.882812 12.355469 53.726562 12.425781 L 53.121094 12.730469 C 53.042969 12.765625 52.910156 12.804688 52.726562 12.851562 " fill-opacity="1" fill-rule="nonzero"/></g><path fill="#ffffff" d="M 63.074219 59.996094 L 63.074219 59.972656 C 63.0625 59.707031 63.121094 59.457031 63.25 59.214844 C 63.40625 58.882812 63.617188 58.589844 63.886719 58.335938 C 63.972656 58.253906 64.066406 58.175781 64.164062 58.105469 L 64.3125 58.003906 L 64.464844 57.917969 L 65.144531 57.558594 C 65.492188 57.375 65.851562 57.246094 66.21875 57.171875 C 66.765625 57.066406 67.34375 57.199219 67.953125 57.566406 C 68.550781 57.957031 68.832031 58.441406 68.804688 59.015625 L 68.726562 59.390625 L 68.554688 59.746094 L 68.300781 60.082031 L 67.972656 60.390625 L 67.59375 60.671875 L 67.164062 60.921875 L 66.703125 61.132812 L 66.222656 61.304688 L 65.734375 61.433594 L 65.246094 61.511719 C 64.890625 61.546875 64.621094 61.550781 64.445312 61.523438 C 64.265625 61.507812 64.105469 61.476562 63.96875 61.425781 C 63.910156 61.386719 63.867188 61.328125 63.839844 61.25 C 63.792969 61.058594 63.804688 60.933594 63.878906 60.871094 C 63.957031 60.796875 64.050781 60.730469 64.160156 60.664062 L 64.855469 60.285156 L 65.011719 60.1875 C 65.109375 60.125 65.1875 60.054688 65.246094 59.976562 C 65.304688 59.902344 65.332031 59.820312 65.332031 59.734375 C 65.332031 59.597656 65.261719 59.492188 65.128906 59.414062 C 65.050781 59.378906 64.960938 59.359375 64.855469 59.363281 C 64.808594 59.34375 64.621094 59.378906 64.296875 59.460938 C 63.929688 59.574219 63.523438 59.75 63.074219 59.996094 " fill-opacity="1" fill-rule="nonzero"/><path fill="#ffffff" d="M 64.070312 65.898438 L 64.09375 65.882812 C 64.660156 65.511719 64.960938 65.175781 64.988281 64.878906 C 64.683594 64.429688 64.179688 64.140625 63.484375 64.007812 C 62.953125 63.90625 62.421875 63.949219 61.886719 64.136719 C 61.421875 64.324219 60.941406 64.664062 60.449219 65.152344 C 59.816406 65.859375 59.496094 66.539062 59.488281 67.191406 C 59.484375 67.660156 59.546875 68.027344 59.683594 68.292969 C 59.792969 68.492188 59.84375 68.578125 59.84375 68.550781 C 59.871094 68.574219 59.90625 68.59375 59.949219 68.613281 C 60.164062 68.691406 60.28125 68.742188 60.292969 68.765625 C 60.339844 68.824219 60.355469 68.863281 60.335938 68.886719 C 60.28125 69.066406 60.179688 69.246094 60.035156 69.429688 C 59.804688 69.710938 59.378906 70.140625 58.757812 70.71875 L 58.5625 70.953125 C 58.441406 71.109375 58.378906 71.25 58.367188 71.386719 L 58.414062 71.578125 C 58.574219 71.824219 58.765625 71.878906 58.992188 71.742188 L 59.152344 71.636719 L 59.703125 71.183594 C 60.710938 70.503906 61.257812 70.140625 61.34375 70.097656 C 62.117188 69.617188 62.632812 69.34375 62.890625 69.277344 C 63.125 69.210938 63.378906 69.167969 63.648438 69.144531 L 65.257812 69.035156 C 65.507812 69.003906 65.726562 68.945312 65.921875 68.863281 L 66.175781 68.707031 L 66.367188 68.488281 L 66.484375 68.195312 C 66.503906 68.164062 66.507812 68.015625 66.496094 67.757812 C 66.441406 67.273438 66.25 66.953125 65.921875 66.792969 C 65.695312 66.761719 65.367188 66.789062 64.941406 66.867188 C 64.84375 66.871094 64.191406 67.039062 62.984375 67.367188 C 62.878906 67.398438 62.609375 67.445312 62.171875 67.507812 C 61.804688 67.554688 61.570312 67.511719 61.46875 67.367188 L 61.378906 67.164062 C 61.363281 67.050781 61.382812 66.933594 61.441406 66.820312 C 61.570312 66.585938 61.792969 66.382812 62.105469 66.203125 C 62.417969 66.027344 62.742188 65.914062 63.074219 65.863281 L 63.363281 65.847656 C 63.628906 65.90625 63.867188 65.925781 64.070312 65.898438 " fill-opacity="1" fill-rule="nonzero"/><path fill="#ffffff" d="M 81.390625 81.339844 L 79.714844 81.453125 L 78.039062 81.5625 L 81.390625 81.339844 " fill-opacity="1" fill-rule="nonzero"/></g></g></svg>